<svg width="82" height="82" viewBox="0 0 82 82" fill="none" xmlns="http://www.w3.org/2000/svg">
<rect width="82" height="82" rx="41" fill="#F0E303"/>
<path d="M37.7759 23.1861H35.778C35.778 20.9823 37.5702 19.1902 39.7739 19.1902C41.9776 19.1902 43.7698 20.9823 43.7698 23.1861H41.7718C41.7718 22.0842 40.8758 21.1881 39.7739 21.1881C38.672 21.1881 37.7759 22.0842 37.7759 23.1861ZM45.7678 30.1789C45.2163 30.1789 44.7688 30.6265 44.7688 31.1779C44.7688 31.7293 45.2163 32.1769 45.7678 32.1769C46.3192 32.1769 46.7667 31.7293 46.7667 31.1779C46.7667 30.6265 46.3192 30.1789 45.7678 30.1789ZM52.7606 30.1789V36.1728H51.1752C50.5109 37.8051 49.3091 39.1827 47.7657 40.0768V43.1656H41.7718V41.1677H39.7739V43.1656H33.78V40.0888C31.3335 38.6702 29.7841 36.0229 29.7841 33.1759C29.7841 32.0041 30.0379 30.8902 30.4924 29.8872C29.4834 29.4047 28.7852 28.3738 28.7852 27.182C28.7852 25.5297 30.1298 24.1851 31.7821 24.1851V26.183C31.2316 26.183 30.7831 26.6306 30.7831 27.182C30.7831 27.6575 31.1168 28.0561 31.5623 28.156C33.0288 26.3439 35.2695 25.184 37.7759 25.184H43.7698C43.8817 25.184 43.9936 25.187 44.1055 25.191C45.2173 22.1931 48.7647 22.1871 48.7647 22.1871V26.9552C49.8136 27.7964 50.6557 28.8992 51.1762 30.1789H52.7606ZM50.7626 32.1769H49.7237L49.5109 31.4626C48.7607 28.9432 46.3991 27.182 43.7688 27.182H37.7749C34.4693 27.182 31.7811 29.8702 31.7811 33.1759C31.7811 35.4715 33.1257 37.5943 35.2076 38.5843L35.777 38.855V41.1667H37.7749V39.1687H43.7688V41.1667H45.7668V38.844L46.3352 38.5733C47.8756 37.8381 49.0324 36.4945 49.5109 34.8891L49.7237 34.1748H50.7626V32.1769Z" fill="#231F20"/>
<path d="M20.3253 62V53.48H22.7733C24.0773 53.48 25.1573 53.884 26.0133 54.692C26.8773 55.5 27.3093 56.516 27.3093 57.74C27.3093 58.964 26.8773 59.98 26.0133 60.788C25.1573 61.596 24.0773 62 22.7733 62H20.3253ZM21.4413 60.956H22.7733C23.7893 60.956 24.6093 60.656 25.2333 60.056C25.8653 59.448 26.1813 58.676 26.1813 57.74C26.1813 56.804 25.8653 56.036 25.2333 55.436C24.6093 54.828 23.7893 54.524 22.7733 54.524H21.4413V60.956ZM31.3737 62.12C30.5017 62.12 29.7777 61.824 29.2017 61.232C28.6337 60.64 28.3497 59.896 28.3497 59C28.3497 58.096 28.6257 57.352 29.1777 56.768C29.7377 56.176 30.4777 55.88 31.3977 55.88C32.3257 55.88 33.0537 56.208 33.5817 56.864C34.1097 57.52 34.3417 58.324 34.2777 59.276H29.3937C29.4097 59.82 29.6097 60.276 29.9937 60.644C30.3777 61.004 30.8417 61.184 31.3857 61.184C32.2017 61.184 32.7817 60.848 33.1257 60.176H34.1817C34.0297 60.736 33.7057 61.2 33.2097 61.568C32.7137 61.936 32.1017 62.12 31.3737 62.12ZM32.5497 57.224C32.2217 56.936 31.8257 56.792 31.3617 56.792C30.8977 56.792 30.4817 56.932 30.1137 57.212C29.7537 57.492 29.5297 57.908 29.4417 58.46H33.1857C33.0897 57.916 32.8777 57.504 32.5497 57.224ZM36.7989 64.508H35.7669V56H36.7989V56.924C37.0069 56.62 37.2989 56.372 37.6749 56.18C38.0589 55.98 38.4709 55.88 38.9109 55.88C39.7429 55.88 40.4389 56.184 40.9989 56.792C41.5669 57.4 41.8509 58.136 41.8509 59C41.8509 59.864 41.5669 60.6 40.9989 61.208C40.4389 61.816 39.7429 62.12 38.9109 62.12C38.4709 62.12 38.0589 62.024 37.6749 61.832C37.2989 61.632 37.0069 61.38 36.7989 61.076V64.508ZM37.2909 60.548C37.6749 60.964 38.1629 61.172 38.7549 61.172C39.3469 61.172 39.8349 60.964 40.2189 60.548C40.6029 60.132 40.7949 59.616 40.7949 59C40.7949 58.384 40.6029 57.868 40.2189 57.452C39.8349 57.036 39.3469 56.828 38.7549 56.828C38.1629 56.828 37.6749 57.036 37.2909 57.452C36.9069 57.868 36.7149 58.384 36.7149 59C36.7149 59.616 36.9069 60.132 37.2909 60.548ZM46.0012 62.12C45.0972 62.12 44.3452 61.82 43.7452 61.22C43.1532 60.612 42.8572 59.872 42.8572 59C42.8572 58.128 43.1532 57.392 43.7452 56.792C44.3452 56.184 45.0972 55.88 46.0012 55.88C46.8972 55.88 47.6412 56.184 48.2332 56.792C48.8332 57.392 49.1332 58.128 49.1332 59C49.1332 59.872 48.8332 60.612 48.2332 61.22C47.6412 61.82 46.8972 62.12 46.0012 62.12ZM44.4892 60.536C44.8812 60.952 45.3852 61.16 46.0012 61.16C46.6172 61.16 47.1172 60.952 47.5012 60.536C47.8852 60.12 48.0772 59.608 48.0772 59C48.0772 58.392 47.8852 57.88 47.5012 57.464C47.1172 57.048 46.6172 56.84 46.0012 56.84C45.3852 56.84 44.8812 57.048 44.4892 57.464C44.1052 57.88 43.9132 58.392 43.9132 59C43.9132 59.608 44.1052 60.12 44.4892 60.536ZM52.5466 62.12C51.8746 62.12 51.3106 61.956 50.8546 61.628C50.4066 61.3 50.1586 60.844 50.1106 60.26H51.1666C51.2306 60.596 51.3906 60.844 51.6466 61.004C51.9106 61.164 52.2146 61.244 52.5586 61.244C52.9026 61.244 53.1786 61.176 53.3866 61.04C53.6026 60.904 53.7106 60.708 53.7106 60.452C53.7106 60.212 53.6306 60.016 53.4706 59.864C53.3186 59.712 53.0666 59.588 52.7146 59.492L51.8506 59.264C50.8186 58.992 50.3026 58.404 50.3026 57.5C50.3026 57.012 50.4946 56.62 50.8786 56.324C51.2706 56.028 51.7706 55.88 52.3786 55.88C52.9946 55.88 53.4986 56.044 53.8906 56.372C54.2906 56.692 54.5146 57.1 54.5626 57.596H53.5306C53.4506 57.332 53.3066 57.124 53.0986 56.972C52.8986 56.82 52.6586 56.744 52.3786 56.744C52.0826 56.744 51.8346 56.812 51.6346 56.948C51.4426 57.084 51.3466 57.264 51.3466 57.488C51.3466 57.704 51.4186 57.88 51.5626 58.016C51.7066 58.152 51.9386 58.264 52.2586 58.352L53.2186 58.604C54.2426 58.86 54.7546 59.452 54.7546 60.38C54.7546 60.956 54.5506 61.392 54.1426 61.688C53.7346 61.976 53.2026 62.12 52.5466 62.12ZM57.2601 54.188C57.1241 54.324 56.9521 54.392 56.7441 54.392C56.5361 54.392 56.3601 54.324 56.2161 54.188C56.0721 54.044 56.0001 53.868 56.0001 53.66C56.0001 53.46 56.0721 53.288 56.2161 53.144C56.3601 53 56.5361 52.928 56.7441 52.928C56.9521 52.928 57.1241 53 57.2601 53.144C57.3961 53.288 57.4641 53.46 57.4641 53.66C57.4641 53.868 57.3961 54.044 57.2601 54.188ZM56.2161 62V56H57.2481V62H56.2161ZM61.5324 62.06C60.9804 62.06 60.5364 61.904 60.2004 61.592C59.8644 61.28 59.6964 60.824 59.6964 60.224V56.948H58.4244V56H59.6964V54.332H60.7284V56H62.4564V56.948H60.7284V60.092C60.7284 60.468 60.8084 60.732 60.9684 60.884C61.1284 61.036 61.3804 61.112 61.7244 61.112C62.0284 61.112 62.2724 61.072 62.4564 60.992V61.916C62.1684 62.012 61.8604 62.06 61.5324 62.06Z" fill="#231F20"/>
</svg>
