<svg width="48" height="47" viewBox="0 0 48 47" fill="none" xmlns="http://www.w3.org/2000/svg">
<path d="M5.31397 42.1197C3.49891 42.1197 2.16495 41.9057 1.31209 41.4565C0.459232 41.0073 0.0218682 40.2372 0 39.1462C0 38.1195 0.459232 37.4563 1.39957 37.1568C2.01188 37.0071 2.51484 36.6648 2.90847 36.0873C3.3021 35.5097 3.7832 34.5471 4.35177 33.1994C8.17871 24.2151 11.3277 16.343 13.777 9.54056C14.1925 8.47099 14.3674 7.31586 14.2799 6.07516C14.1925 4.83446 14.2362 3.93602 14.3674 3.40123C14.6517 2.33166 15.4171 1.54018 16.6198 1.04818C17.8445 0.556176 19.9219 0.235305 22.896 0.0855655C23.8801 0.0213913 24.7329 0 25.4546 0C26.1762 0 26.8323 0.0427829 27.4883 0.106957C28.1225 0.171131 28.6474 0.278088 29.0628 0.385045C29.4783 0.492002 29.872 0.684525 30.2656 0.941221C30.6592 1.19792 30.9872 1.47601 31.2278 1.7327C31.4683 2.01079 31.7308 2.39584 31.9932 2.88784C32.2556 3.37984 32.4743 3.87184 32.6492 4.38524C32.8242 4.89863 33.0429 5.51898 33.3053 6.28907C34.1363 8.64212 35.1859 11.7011 36.4543 15.466C37.7227 19.2095 38.8817 22.5679 39.9095 25.4985C40.9373 28.4292 41.9214 31.1245 42.8836 33.5631C43.4303 34.9535 43.9114 35.8948 44.3269 36.4082C44.7642 36.9215 45.3547 37.1996 46.12 37.2852C46.8417 37.4135 47.2135 38.0125 47.2135 39.1035C47.2135 40.1516 46.7542 40.9217 45.8795 41.4137C45.0048 41.9057 43.6489 42.141 41.7683 42.141H30.1781C27.707 42.141 25.9138 41.9271 24.8423 41.4779C23.7489 41.0287 23.224 40.2586 23.224 39.1676C23.224 38.5687 23.3115 38.1195 23.5083 37.8414C23.7051 37.5633 24.055 37.4135 24.5361 37.4135C25.8045 37.3494 26.5917 36.9857 26.8323 36.344C27.0728 35.7022 26.9635 34.6754 26.4824 33.3278L25.214 29.4773L12.3555 29.6057L11.0872 33.0925C10.6061 34.3332 10.5623 35.2958 10.956 36.0231C11.3496 36.729 12.2243 37.1782 13.5583 37.3066C14.5424 37.4349 15.0016 38.0339 14.9579 39.1249C14.9579 40.2372 14.5205 41.0073 13.6676 41.4779C12.8148 41.9485 11.3933 42.1624 9.44707 42.1624H5.33584L5.31397 42.1197ZM14.1925 24.2578L23.4427 24.322L20.25 14.7815L18.916 10.824L14.1925 24.2578Z" fill="#231F20"/>
<path d="M27.3844 46.8395C26.741 46.8395 26.0975 46.7765 25.497 46.4828C24.489 46.0003 23.8027 45.224 23.481 44.1541C23.3308 43.6296 23.5668 43.3149 24.1029 43.189C25.2396 42.9373 26.3764 42.6855 27.5131 42.4337C28.1994 42.2869 28.8857 42.119 29.572 41.9722C30.3227 41.8043 30.7087 42.14 30.7087 42.9163C30.7087 44.6366 29.9366 45.8534 28.3495 46.5667C28.3281 46.5667 28.3066 46.6087 28.2852 46.6297C27.9849 46.6926 27.6632 46.7556 27.3629 46.8395H27.3844Z" fill="#231F20"/>
<path d="M24.9826 41.6575C20.9291 42.1191 16.8755 42.5806 12.8434 43.0842C11.3421 43.273 10.2912 42.245 10.141 40.7974C10.0767 40.105 10.1839 39.3917 10.4413 38.7623C10.7845 37.9861 11.4064 37.3777 11.8783 36.6853C12.3287 36.035 12.5646 35.2797 12.586 34.5034C12.6289 33.2237 12.586 31.9439 12.6289 30.6642C12.7147 27.1186 13.401 23.7618 15.5458 20.8456C16.468 19.5659 17.6691 18.5798 19.106 17.9295C19.2991 17.8455 19.3849 17.7197 19.4063 17.5099C19.4706 16.4189 20.2427 15.4538 21.3366 15.0972C22.366 14.7405 23.61 15.0552 24.2963 15.9154C24.5537 16.2091 24.6824 16.6077 24.8968 16.9434C24.9612 17.0483 25.0684 17.1742 25.1971 17.1952C27.8995 17.7616 29.8941 19.3351 31.5026 21.496C32.961 23.4681 33.8833 25.671 34.5052 28.0207C34.827 29.2585 35.1058 30.5173 35.4275 31.7551C35.6634 32.6362 36.0924 33.4545 36.7572 34.0629C37.9154 35.1328 39.2022 35.7832 39.3523 37.5455C39.4596 38.8882 38.7089 40.126 37.3148 40.2938C33.2184 40.7554 29.1005 41.2379 25.0041 41.7205L24.9826 41.6575Z" fill="#F0E303"/>
<path d="M38.5162 25.1255C38.5162 25.1255 38.5162 25.3143 38.5162 25.3983C38.5162 25.713 38.2802 25.9647 37.98 25.9647C37.6797 25.9647 37.4223 25.7339 37.4223 25.4402C37.3794 24.7689 37.2937 24.0975 37.1006 23.4471C36.6931 21.9786 35.921 20.7198 34.8272 19.6708C34.6556 19.5239 34.5269 19.3561 34.5698 19.1043C34.6127 18.8945 34.72 18.7267 34.9344 18.6428C35.1489 18.5589 35.3634 18.6008 35.5135 18.7687C35.9639 19.2722 36.4358 19.7547 36.8433 20.3002C37.8727 21.7268 38.4089 23.3422 38.5162 25.1045V25.1255Z" fill="#F0E303"/>
<path d="M36.1351 25.3354C36.178 25.5871 36.1137 25.8389 35.8134 25.9857C35.4703 26.1536 35.0842 25.9438 35.0199 25.5452C34.9555 25.1256 34.9341 24.706 34.8483 24.3074C34.5909 23.1954 34.0333 22.2304 33.1968 21.4331C33.0896 21.3282 32.9824 21.1814 32.9395 21.0345C32.8751 20.8037 33.0038 20.552 33.2183 20.4471C33.4328 20.3422 33.6901 20.3841 33.8617 20.552C34.5695 21.2024 35.1057 21.9576 35.4917 22.8388C35.8563 23.636 36.0279 24.4542 36.0922 25.3563L36.1351 25.3354Z" fill="#F0E303"/>
<path d="M8.76852 24.4122C8.81141 24.1605 8.85431 23.9087 8.8972 23.6779C9.28325 21.7478 10.184 20.1324 11.621 18.7897C11.8569 18.5799 12.1786 18.5799 12.3931 18.7897C12.6076 19.0204 12.5861 19.3351 12.3502 19.5659C11.814 20.0694 11.3636 20.6149 10.9776 21.2443C10.3556 22.2513 9.99102 23.3633 9.86233 24.5381C9.86233 24.706 9.81944 24.8948 9.81944 25.0626C9.81944 25.3563 9.64786 25.5661 9.36904 25.6081C9.13312 25.65 8.91865 25.5242 8.78996 25.2514C8.78996 25.2514 8.78997 25.2304 8.74707 25.2095C8.74707 24.9367 8.74707 24.664 8.76852 24.3913V24.4122Z" fill="#F0E303"/>
<path d="M11.0205 24.9577C11.1492 23.2163 11.8569 21.7058 13.1438 20.468C13.3797 20.2372 13.7014 20.2372 13.9159 20.468C14.1303 20.6778 14.1303 21.0135 13.873 21.2443C13.2724 21.8107 12.8006 22.4611 12.5003 23.2373C12.243 23.8667 12.1143 24.4961 12.0714 25.1675C12.0714 25.3982 11.9642 25.5871 11.7282 25.671C11.3851 25.8178 11.0205 25.5661 10.999 25.1884C10.999 25.1255 10.999 25.0626 10.999 24.9577H11.0205Z" fill="#F0E303"/>
</svg>
