<svg width="68" height="65" viewBox="0 0 68 65" fill="none" xmlns="http://www.w3.org/2000/svg">
<circle cx="32.0455" cy="32.0455" r="31.5455" fill="white" stroke="#231F20"/>
<g clip-path="url(#clip0_294_2031)">
<rect x="54.1553" y="54.156" width="7.5" height="7.5" fill="#B5F4BC"/>
<rect x="46.6553" y="54.156" width="7.5" height="7.5" fill="#B5F4BC"/>
<rect x="39.1553" y="54.156" width="7.5" height="7.5" fill="white"/>
<rect x="31.6553" y="54.156" width="7.5" height="7.5" fill="#ACA4D5"/>
<rect x="24.1553" y="54.156" width="7.5" height="7.5" fill="#ACA4D5"/>
<rect x="16.6553" y="54.156" width="7.5" height="7.5" fill="#FFBA6B"/>
<rect x="9.15527" y="54.156" width="7.5" height="7.5" fill="white"/>
<rect x="54.1553" y="46.656" width="7.5" height="7.5" fill="#B5F4BC"/>
<rect x="46.6553" y="46.656" width="7.5" height="7.5" fill="#B5F4BC"/>
<rect x="39.1553" y="46.656" width="7.5" height="7.5" fill="#FFBA6B"/>
<rect x="31.6553" y="46.656" width="7.5" height="7.5" fill="#FFBA6B"/>
<rect x="24.1553" y="46.656" width="7.5" height="7.5" fill="#B5F4BC"/>
<rect x="16.6553" y="46.656" width="7.5" height="7.5" fill="#B5F4BC"/>
<rect x="9.15527" y="46.656" width="7.5" height="7.5" fill="#B5F4BC"/>
<rect x="54.1553" y="39.156" width="7.5" height="7.5" fill="#ACA4D5"/>
<rect x="46.6553" y="39.156" width="7.5" height="7.5" fill="#FFBA6B"/>
<rect x="39.1553" y="39.156" width="7.5" height="7.5" fill="#FFBA6B"/>
<rect x="31.6553" y="39.156" width="7.5" height="7.5" fill="white"/>
<rect x="24.1553" y="39.156" width="7.5" height="7.5" fill="#B5F4BC"/>
<rect x="16.6553" y="39.156" width="7.5" height="7.5" fill="#FFBA6B"/>
<rect x="9.15527" y="39.156" width="7.5" height="7.5" fill="white"/>
<rect x="54.1553" y="31.656" width="7.5" height="7.5" fill="#B5F4BC"/>
<rect x="46.6553" y="31.656" width="7.5" height="7.5" fill="white"/>
<rect x="39.1553" y="31.656" width="7.5" height="7.5" fill="#ACA4D5"/>
<rect x="31.6553" y="31.656" width="7.5" height="7.5" fill="#FFBA6B"/>
<rect x="24.1553" y="31.656" width="7.5" height="7.5" fill="#FFBA6B"/>
<rect x="16.6553" y="31.656" width="7.5" height="7.5" fill="white"/>
<rect x="9.15527" y="31.656" width="7.5" height="7.5" fill="#ACA4D5"/>
<rect x="54.1553" y="24.156" width="7.5" height="7.5" fill="#B5F4BC"/>
<rect x="46.6553" y="24.156" width="7.5" height="7.5" fill="#B5F4BC"/>
<rect x="39.1553" y="24.156" width="7.5" height="7.5" fill="#ACA4D5"/>
<rect x="31.6553" y="24.156" width="7.5" height="7.5" fill="#B5F4BC"/>
<rect x="24.1553" y="24.156" width="7.5" height="7.5" fill="#ACA4D5"/>
<rect x="16.6553" y="24.156" width="7.5" height="7.5" fill="#FFBA6B"/>
<rect x="9.15527" y="24.156" width="7.5" height="7.5" fill="white"/>
<rect x="54.1553" y="16.656" width="7.5" height="7.5" fill="white"/>
<rect x="46.6553" y="16.656" width="7.5" height="7.5" fill="#B5F4BC"/>
<rect x="39.1553" y="16.656" width="7.5" height="7.5" fill="white"/>
<rect x="31.6553" y="16.656" width="7.5" height="7.5" fill="#B5F4BC"/>
<rect x="24.1553" y="16.656" width="7.5" height="7.5" fill="#B5F4BC"/>
<rect x="16.6553" y="16.656" width="7.5" height="7.5" fill="white"/>
<rect x="9.15527" y="16.656" width="7.5" height="7.5" fill="#ACA4D5"/>
<rect x="54.1553" y="9.15601" width="7.5" height="7.5" fill="#B5F4BC"/>
<rect x="46.6553" y="9.15601" width="7.5" height="7.5" fill="#B5F4BC"/>
<rect x="39.1553" y="9.15601" width="7.5" height="7.5" fill="#ACA4D5"/>
<rect x="31.6553" y="9.15601" width="7.5" height="7.5" fill="#B5F4BC"/>
<rect x="24.1553" y="9.15601" width="7.5" height="7.5" fill="#B5F4BC"/>
<rect x="16.6553" y="9.15601" width="7.5" height="7.5" fill="#FFBA6B"/>
<rect x="9.15527" y="9.15601" width="7.5" height="7.5" fill="#ACA4D5"/>
</g>
<circle cx="55.5" cy="51.5" r="12.5" fill="#F0E303"/>
<path opacity="0.4" d="M57.1201 52.0325H56.1155C55.2914 52.0325 54.6201 51.3659 54.6201 50.5372V49.5325C54.6201 49.3427 54.4673 49.1853 54.2729 49.1853H52.8053C51.7359 49.1853 50.8701 49.8797 50.8701 51.1205V54.1946C50.8701 55.4353 51.7359 56.1297 52.8053 56.1297H55.5322C56.6016 56.1297 57.4673 55.4353 57.4673 54.1946V52.3797C57.4673 52.1853 57.3099 52.0325 57.1201 52.0325Z" fill="#231F20"/>
<path d="M58.1945 46.8706H57.2825H56.7779H55.4677C54.4214 46.8706 53.5741 47.5373 53.5371 48.7271C53.5649 48.7271 53.588 48.7225 53.6158 48.7225H54.926H55.4306H56.3427C57.4121 48.7225 58.2779 49.4169 58.2779 50.6576V51.5697V52.8243V53.7363C58.2779 53.7641 58.2732 53.7873 58.2732 53.8104C59.3056 53.778 60.1297 53.0928 60.1297 51.8845V50.9725V49.7178V48.8058C60.1297 47.565 59.264 46.8706 58.1945 46.8706Z" fill="#231F20"/>
<path d="M55.4905 49.2547C55.3469 49.1112 55.1016 49.2084 55.1016 49.4075V50.6204C55.1016 51.1297 55.5321 51.5464 56.0599 51.5464C56.3886 51.551 56.8469 51.551 57.2405 51.551C57.4395 51.551 57.5414 51.3195 57.4025 51.1806C56.8979 50.676 55.9997 49.7732 55.4905 49.2547Z" fill="#231F20"/>
<defs>
<clipPath id="clip0_294_2031">
<rect x="9.15527" y="9.15601" width="46.3308" height="46.3308" rx="23.1654" fill="white"/>
</clipPath>
</defs>
</svg>
