<svg width="252" height="252" viewBox="0 0 252 252" fill="none" xmlns="http://www.w3.org/2000/svg">
<g filter="url(#filter0_d_294_2212)">
<mask id="path-1-inside-1_294_2212" fill="white">
<path fill-rule="evenodd" clip-rule="evenodd" d="M125 249C193.759 249 249.5 193.259 249.5 124.5C249.5 55.7405 193.759 0 125 0C56.2405 0 0.5 55.7405 0.5 124.5C0.5 193.259 56.2405 249 125 249ZM125 195.239C164.068 195.239 195.739 163.568 195.739 124.5C195.739 85.4321 164.068 53.7614 125 53.7614C85.9325 53.7614 54.2617 85.4321 54.2617 124.5C54.2617 163.568 85.9325 195.239 125 195.239Z"/>
</mask>
<path fill-rule="evenodd" clip-rule="evenodd" d="M125 249C193.759 249 249.5 193.259 249.5 124.5C249.5 55.7405 193.759 0 125 0C56.2405 0 0.5 55.7405 0.5 124.5C0.5 193.259 56.2405 249 125 249ZM125 195.239C164.068 195.239 195.739 163.568 195.739 124.5C195.739 85.4321 164.068 53.7614 125 53.7614C85.9325 53.7614 54.2617 85.4321 54.2617 124.5C54.2617 163.568 85.9325 195.239 125 195.239Z" fill="white"/>
<path d="M248.5 124.5C248.5 192.707 193.207 248 125 248V250C194.312 250 250.5 193.812 250.5 124.5H248.5ZM125 1C193.207 1 248.5 56.2928 248.5 124.5H250.5C250.5 55.1883 194.312 -1 125 -1V1ZM1.5 124.5C1.5 56.2928 56.7928 1 125 1V-1C55.6883 -1 -0.5 55.1883 -0.5 124.5H1.5ZM125 248C56.7928 248 1.5 192.707 1.5 124.5H-0.5C-0.5 193.812 55.6883 250 125 250V248ZM194.739 124.5C194.739 163.016 163.516 194.239 125 194.239V196.239C164.621 196.239 196.739 164.12 196.739 124.5H194.739ZM125 54.7614C163.516 54.7614 194.739 85.9844 194.739 124.5H196.739C196.739 84.8799 164.621 52.7614 125 52.7614V54.7614ZM55.2617 124.5C55.2617 85.9844 86.4848 54.7614 125 54.7614V52.7614C85.3802 52.7614 53.2617 84.8799 53.2617 124.5H55.2617ZM125 194.239C86.4848 194.239 55.2617 163.016 55.2617 124.5H53.2617C53.2617 164.12 85.3802 196.239 125 196.239V194.239Z" fill="#231F20" mask="url(#path-1-inside-1_294_2212)"/>
</g>
<path d="M124.293 7.31226C59.1635 7.31226 6.39746 60.0783 6.39746 125.207C6.39746 190.337 59.1635 243.103 124.293 243.103C189.422 243.103 242.188 190.337 242.188 125.207C242.188 60.0783 189.391 7.31226 124.293 7.31226ZM124.293 203.835C80.8527 203.835 45.6652 168.617 45.6652 125.207C45.6652 81.7982 80.8834 46.58 124.293 46.58C167.702 46.58 202.92 81.7982 202.92 125.207C202.92 168.617 167.702 203.835 124.293 203.835Z" fill="#F1625C"/>
<path d="M124.293 246.17C57.5993 246.17 3.33008 191.901 3.33008 125.207C3.33008 58.5136 57.5993 4.24438 124.293 4.24438C190.987 4.24438 245.256 58.5136 245.256 125.207C245.256 191.901 190.987 246.17 124.293 246.17ZM124.293 10.38C60.9739 10.38 9.46566 61.8882 9.46566 125.207C9.46566 188.527 60.9739 240.035 124.293 240.035C187.612 240.035 239.12 188.527 239.12 125.207C239.12 61.8882 187.612 10.38 124.293 10.38ZM124.293 206.903C79.2272 206.903 42.5978 170.243 42.5978 125.207C42.5978 80.1722 79.2579 43.5121 124.293 43.5121C169.328 43.5121 205.988 80.1722 205.988 125.207C205.988 170.243 169.328 206.903 124.293 206.903ZM124.293 49.617C82.6325 49.617 48.7334 83.5161 48.7334 125.177C48.7334 166.837 82.6325 200.736 124.293 200.736C165.954 200.736 199.853 166.837 199.853 125.177C199.853 83.5161 165.954 49.617 124.293 49.617Z" fill="white"/>
<path d="M240.379 104.745C235.501 76.8894 220.837 52.3777 200.068 34.922L174.851 64.9863C188.717 76.6439 198.473 92.9646 201.724 111.555C202.491 116.004 202.921 120.544 202.921 125.207C202.921 139.534 199.086 152.94 192.368 164.505L226.359 184.139C236.39 166.806 242.158 146.682 242.158 125.207C242.158 118.213 241.514 111.402 240.348 104.745H240.379Z" fill="#246176"/>
<path d="M226.359 187.207C225.837 187.207 225.316 187.084 224.825 186.808L190.834 167.174C190.128 166.776 189.607 166.101 189.392 165.303C189.177 164.505 189.3 163.677 189.699 162.972C196.325 151.529 199.822 138.46 199.822 125.207C199.822 120.881 199.423 116.495 198.657 112.077C195.589 94.6518 186.416 78.7607 172.826 67.3178C171.537 66.2134 171.353 64.2807 172.458 62.9922L197.675 32.9279C198.196 32.3143 198.933 31.9155 199.761 31.8542C200.559 31.7621 201.387 32.0382 202 32.5598C223.782 50.8745 238.476 76.3065 243.354 104.193C244.581 111.218 245.195 118.274 245.195 125.176C245.195 146.405 239.581 167.297 228.966 185.643C228.414 186.624 227.371 187.176 226.297 187.176L226.359 187.207ZM196.509 163.37L225.193 179.936C234.304 163.186 239.09 144.319 239.09 125.207C239.09 118.673 238.507 111.954 237.311 105.266C232.862 79.8037 219.763 56.4579 200.374 39.2782L179.084 64.6489C192.521 76.828 201.571 93.1793 204.7 111.034C205.528 115.789 205.958 120.544 205.958 125.207C205.958 138.521 202.706 151.651 196.478 163.37H196.509Z" fill="white"/>
<path d="M226.36 184.14L192.368 164.506C183.196 180.367 168.624 192.76 151.168 199.111L164.605 235.986C190.773 226.445 212.585 207.915 226.36 184.109V184.14Z" fill="#93D3D4"/>
<path d="M164.634 239.084C164.205 239.084 163.745 238.992 163.346 238.808C162.61 238.47 162.027 237.826 161.751 237.09L148.314 200.215C147.731 198.62 148.559 196.871 150.154 196.288C166.782 190.245 180.832 178.434 189.729 163.033C190.557 161.561 192.459 161.07 193.932 161.898L227.923 181.532C228.628 181.931 229.15 182.606 229.365 183.403C229.579 184.201 229.457 185.029 229.058 185.735C214.823 210.369 192.306 229.267 165.708 238.961C165.371 239.084 165.002 239.145 164.665 239.145L164.634 239.084ZM155.124 200.921L166.444 232.059C189.514 222.947 209.087 206.473 222.155 185.275L193.472 168.709C184.36 183.189 170.893 194.478 155.124 200.921Z" fill="white"/>
<path d="M164.632 236.016L151.195 199.142C142.789 202.209 133.739 203.866 124.291 203.866C114.842 203.866 105.792 202.209 97.3861 199.142L83.9492 236.016C96.5272 240.587 110.117 243.103 124.26 243.103C138.402 243.103 152.023 240.587 164.601 236.016H164.632Z" fill="#67CCEE"/>
<path d="M124.291 246.171C110.087 246.171 96.1591 243.717 82.9063 238.9C81.311 238.317 80.4827 236.569 81.0656 234.973L94.5025 198.099C94.7786 197.332 95.3615 196.718 96.0978 196.381C96.834 196.043 97.693 196.013 98.4293 196.289C114.965 202.302 133.586 202.302 150.152 196.289C150.919 196.013 151.747 196.043 152.484 196.381C153.22 196.718 153.803 197.362 154.079 198.099L167.516 234.973C167.792 235.74 167.761 236.569 167.424 237.305C167.086 238.041 166.442 238.624 165.706 238.9C152.453 243.717 138.525 246.171 124.321 246.171H124.291ZM87.9068 234.145C111.314 241.968 137.268 241.968 160.675 234.145L149.324 203.007C133.187 208.222 115.363 208.222 99.2269 203.007L87.8761 234.145H87.9068Z" fill="white"/>
<path d="M83.9519 236.016L97.3888 199.141C79.9331 192.791 65.3611 180.428 56.1884 164.536L22.1973 184.17C35.9716 207.976 57.7836 226.506 83.9519 236.047V236.016Z" fill="#F5B659"/>
<path d="M83.9507 239.084C83.6133 239.084 83.2452 239.022 82.9077 238.9C56.31 229.205 33.7924 210.308 19.5578 185.704C19.159 184.998 19.0363 184.17 19.251 183.373C19.4658 182.575 19.9873 181.931 20.6929 181.501L54.684 161.867C56.1566 161.008 58.0279 161.53 58.8869 163.002C67.7835 178.403 81.8646 190.214 98.4921 196.257C99.259 196.533 99.8726 197.116 100.21 197.853C100.547 198.589 100.578 199.448 100.302 200.184L86.8651 237.059C86.405 238.317 85.2392 239.084 83.9814 239.084H83.9507ZM26.4297 185.244C39.4678 206.473 59.071 222.947 82.1407 232.028L93.4609 200.89C77.6924 194.447 64.2248 183.158 55.1135 168.678L26.4297 185.244Z" fill="white"/>
<path d="M56.1881 164.505C49.5003 152.94 45.6349 139.503 45.6349 125.176C45.6349 120.513 46.0644 115.973 46.8313 111.525L8.17718 104.714C7.01142 111.371 6.36719 118.212 6.36719 125.176C6.36719 146.651 12.1346 166.776 22.1663 184.109L56.1574 164.475L56.1881 164.505Z" fill="#8EC536"/>
<path d="M22.197 187.208C21.1233 187.208 20.1109 186.655 19.528 185.674C8.94413 167.328 3.33008 146.437 3.33008 125.207C3.33008 118.305 3.94364 111.218 5.17075 104.224C5.32414 103.426 5.75363 102.721 6.42855 102.23C7.10346 101.77 7.93176 101.585 8.72939 101.708L47.3835 108.519C49.0401 108.825 50.1752 110.39 49.8685 112.077C49.1015 116.464 48.7027 120.882 48.7027 125.207C48.7027 138.46 52.2 151.529 58.8264 163.003C59.2252 163.708 59.3479 164.537 59.1332 165.334C58.9184 166.132 58.3969 166.776 57.6913 167.206L23.7002 186.839C23.2094 187.115 22.6878 187.238 22.1663 187.238L22.197 187.208ZM10.7235 108.304C9.86447 113.979 9.46566 119.655 9.46566 125.207C9.46566 144.32 14.2514 163.187 23.3627 179.937L52.0466 163.371C45.8496 151.652 42.5671 138.522 42.5671 125.207C42.5671 121.526 42.8125 117.783 43.3341 114.041L10.7235 108.304Z" fill="white"/>
<path d="M8.20703 104.745L46.8612 111.555C50.113 92.9646 59.8993 76.6133 73.7657 64.9863L48.5485 34.922C27.7489 52.347 13.0848 76.8587 8.20703 104.745Z" fill="#F29A76"/>
<path d="M46.8611 114.623C46.677 114.623 46.493 114.623 46.3396 114.562L7.68542 107.751C6.02882 107.445 4.89373 105.88 5.20051 104.193C10.0783 76.2758 24.773 50.8438 46.5543 32.5598C47.1679 32.0382 47.9655 31.7621 48.7938 31.8542C49.5914 31.9155 50.3584 32.3143 50.8799 32.9279L76.0971 62.9922C77.2015 64.2807 77.0175 66.2134 75.729 67.3178C62.108 78.7607 52.9353 94.6518 49.8982 112.077C49.7448 112.875 49.3153 113.58 48.6404 114.071C48.1189 114.439 47.5053 114.623 46.8918 114.623H46.8611ZM11.7963 102.26L44.4069 107.997C47.9962 91.3386 56.7701 76.1224 69.44 64.6182L48.1496 39.2475C29.4974 55.7829 16.7047 77.9324 11.7656 102.229L11.7963 102.26Z" fill="white"/>
<path d="M48.517 34.8917L73.7342 64.956C87.4166 53.4825 105.026 46.5493 124.261 46.5493V7.31226C95.4235 7.31226 68.9792 17.6814 48.4863 34.8917H48.517Z" fill="#ECE8DD"/>
<path d="M73.7353 68.0238C73.7353 68.0238 73.5512 68.0238 73.4592 68.0238C72.6615 67.9624 71.8946 67.5636 71.3731 66.95L46.1558 36.8857C45.0514 35.5972 45.2355 33.6645 46.524 32.5601C68.2746 14.3067 95.8847 4.24438 124.292 4.24438C125.98 4.24438 127.36 5.62489 127.36 7.31218V46.5492C127.36 47.3468 127.053 48.1445 126.471 48.7273C125.888 49.3102 125.121 49.617 124.292 49.617C106.561 49.617 89.289 55.906 75.7293 67.2875C75.1771 67.7476 74.4715 67.9931 73.7659 67.9931L73.7353 68.0238ZM52.8436 35.2904L74.1341 60.661C87.6017 50.1692 104.106 44.1563 121.194 43.5121V10.4106C96.3449 11.0856 72.2934 19.8288 52.8436 35.2904Z" fill="white"/>
<defs>
<filter id="filter0_d_294_2212" x="0.5" y="0" width="251" height="252" filterUnits="userSpaceOnUse" color-interpolation-filters="sRGB">
<feFlood flood-opacity="0" result="BackgroundImageFix"/>
<feColorMatrix in="SourceAlpha" type="matrix" values="0 0 0 0 0 0 0 0 0 0 0 0 0 0 0 0 0 0 127 0" result="hardAlpha"/>
<feOffset dx="2" dy="3"/>
<feComposite in2="hardAlpha" operator="out"/>
<feColorMatrix type="matrix" values="0 0 0 0 0.137255 0 0 0 0 0.113725 0 0 0 0 0.141176 0 0 0 1 0"/>
<feBlend mode="normal" in2="BackgroundImageFix" result="effect1_dropShadow_294_2212"/>
<feBlend mode="normal" in="SourceGraphic" in2="effect1_dropShadow_294_2212" result="shape"/>
</filter>
</defs>
</svg>
