<svg width="208" height="50" viewBox="0 0 208 50" fill="none" xmlns="http://www.w3.org/2000/svg">
<rect width="207.29" height="49.7904" rx="24.8952" transform="matrix(0.999999 -1.8971e-09 0.00846836 0.999964 0 0)" fill="#DFF0FF"/>
<rect width="34.76" height="34.7594" rx="17.3797" transform="matrix(0.999999 1.67393e-09 0.0085635 0.999963 8.87305 7.10583)" fill="#231F20"/>
<path d="M63.8314 31V21.048H60.2954V19.64H68.8234V21.048H65.2874V31H63.8314ZM72.5589 31.16C71.3536 31.16 70.3509 30.76 69.5509 29.96C68.7616 29.1493 68.3669 28.1627 68.3669 27C68.3669 25.8373 68.7616 24.856 69.5509 24.056C70.3509 23.2453 71.3536 22.84 72.5589 22.84C73.7536 22.84 74.7456 23.2453 75.5349 24.056C76.3349 24.856 76.7349 25.8373 76.7349 27C76.7349 28.1627 76.3349 29.1493 75.5349 29.96C74.7456 30.76 73.7536 31.16 72.5589 31.16ZM70.5429 29.048C71.0656 29.6027 71.7376 29.88 72.5589 29.88C73.3803 29.88 74.0469 29.6027 74.5589 29.048C75.0709 28.4933 75.3269 27.8107 75.3269 27C75.3269 26.1893 75.0709 25.5067 74.5589 24.952C74.0469 24.3973 73.3803 24.12 72.5589 24.12C71.7376 24.12 71.0656 24.3973 70.5429 24.952C70.0309 25.5067 69.7749 26.1893 69.7749 27C69.7749 27.8107 70.0309 28.4933 70.5429 29.048ZM81.6734 31.08C80.9374 31.08 80.3454 30.872 79.8974 30.456C79.4494 30.04 79.2254 29.432 79.2254 28.632V24.264H77.5294V23H79.2254V20.776H80.6014V23H82.9054V24.264H80.6014V28.456C80.6014 28.9573 80.7081 29.3093 80.9214 29.512C81.1348 29.7147 81.4708 29.816 81.9294 29.816C82.3348 29.816 82.6601 29.7627 82.9054 29.656V30.888C82.5214 31.016 82.1108 31.08 81.6734 31.08ZM87.8498 31.16C86.7405 31.16 85.8071 30.7547 85.0498 29.944C84.3031 29.1333 83.9298 28.152 83.9298 27C83.9298 25.848 84.3031 24.8667 85.0498 24.056C85.8071 23.2453 86.7405 22.84 87.8498 22.84C88.4365 22.84 88.9805 22.9733 89.4818 23.24C89.9938 23.496 90.3885 23.8267 90.6658 24.232V23H92.0418V31H90.6658V29.768C90.3885 30.1733 89.9938 30.5093 89.4818 30.776C88.9805 31.032 88.4365 31.16 87.8498 31.16ZM88.0578 29.896C88.8471 29.896 89.4978 29.6187 90.0098 29.064C90.5218 28.5093 90.7778 27.8213 90.7778 27C90.7778 26.1787 90.5218 25.4907 90.0098 24.936C89.4978 24.3813 88.8471 24.104 88.0578 24.104C87.2578 24.104 86.6018 24.3813 86.0898 24.936C85.5778 25.4907 85.3218 26.1787 85.3218 27C85.3218 27.8213 85.5778 28.5093 86.0898 29.064C86.6018 29.6187 87.2578 29.896 88.0578 29.896ZM94.6319 31V19H96.0079V31H94.6319ZM105.656 31L100.808 19.64H102.456L106.28 28.68L110.12 19.64H111.736L106.904 31H105.656ZM115.537 31.16C114.428 31.16 113.495 30.7547 112.737 29.944C111.991 29.1333 111.617 28.152 111.617 27C111.617 25.848 111.991 24.8667 112.737 24.056C113.495 23.2453 114.428 22.84 115.537 22.84C116.124 22.84 116.668 22.9733 117.169 23.24C117.681 23.496 118.076 23.8267 118.353 24.232V23H119.729V31H118.353V29.768C118.076 30.1733 117.681 30.5093 117.169 30.776C116.668 31.032 116.124 31.16 115.537 31.16ZM115.745 29.896C116.535 29.896 117.185 29.6187 117.697 29.064C118.209 28.5093 118.465 27.8213 118.465 27C118.465 26.1787 118.209 25.4907 117.697 24.936C117.185 24.3813 116.535 24.104 115.745 24.104C114.945 24.104 114.289 24.3813 113.777 24.936C113.265 25.4907 113.009 26.1787 113.009 27C113.009 27.8213 113.265 28.5093 113.777 29.064C114.289 29.6187 114.945 29.896 115.745 29.896ZM122.319 31V19H123.695V31H122.319ZM129.136 31.16C128.261 31.16 127.552 30.8667 127.008 30.28C126.464 29.6827 126.192 28.8933 126.192 27.912V23H127.568V27.704C127.568 28.376 127.728 28.9093 128.048 29.304C128.378 29.6987 128.821 29.896 129.376 29.896C130.016 29.896 130.544 29.6347 130.96 29.112C131.386 28.5787 131.6 27.864 131.6 26.968V23H132.976V31H131.6V29.768C131.077 30.696 130.256 31.16 129.136 31.16ZM138.977 31.16C137.815 31.16 136.849 30.7653 136.081 29.976C135.324 29.1867 134.945 28.1947 134.945 27C134.945 25.7947 135.313 24.8027 136.049 24.024C136.796 23.2347 137.783 22.84 139.009 22.84C140.247 22.84 141.217 23.2773 141.921 24.152C142.625 25.0267 142.935 26.0987 142.849 27.368H136.337C136.359 28.0933 136.625 28.7013 137.137 29.192C137.649 29.672 138.268 29.912 138.993 29.912C140.081 29.912 140.855 29.464 141.313 28.568H142.721C142.519 29.3147 142.087 29.9333 141.425 30.424C140.764 30.9147 139.948 31.16 138.977 31.16ZM140.545 24.632C140.108 24.248 139.58 24.056 138.961 24.056C138.343 24.056 137.788 24.2427 137.297 24.616C136.817 24.9893 136.519 25.544 136.401 26.28H141.393C141.265 25.5547 140.983 25.0053 140.545 24.632ZM147.459 33.56H146.339C144.974 31.0747 144.291 28.5147 144.291 25.88C144.291 23.2453 144.974 20.6853 146.339 18.2H147.459C146.168 20.7067 145.523 23.2667 145.523 25.88C145.523 28.4933 146.168 31.0533 147.459 33.56ZM148.041 31L153.065 19.64H154.297L159.337 31H157.785L156.313 27.688H151.017L149.577 31H148.041ZM153.657 21.656L151.609 26.344H155.721L153.657 21.656ZM160.934 31V19.64H162.422V29.592H167.91V31H160.934ZM168.739 31V30.008L174.899 21.048H168.915V19.64H176.867V20.632L170.707 29.592H177.027V31H168.739ZM179.17 33.56H178.05C179.341 31.0533 179.986 28.4933 179.986 25.88C179.986 23.2667 179.341 20.7067 178.05 18.2H179.17C180.535 20.6853 181.218 23.2453 181.218 25.88C181.218 28.5147 180.535 31.0747 179.17 33.56Z" fill="#231F20"/>
<mask id="mask0_384_180" style="mask-type:alpha" maskUnits="userSpaceOnUse" x="19" y="18" width="37" height="14">
<path d="M54.5484 23.024C53.9922 22.1402 53.2906 21.3508 52.4715 20.6871L54.1966 19.0132C54.3088 18.9004 54.3709 18.7494 54.3695 18.5926C54.3681 18.4359 54.3033 18.2859 54.1891 18.1751C54.0749 18.0643 53.9203 18.0014 53.7588 18C53.5972 17.9987 53.4416 18.0589 53.3254 18.1678L51.4493 19.9906C50.2863 19.3203 48.9568 18.971 47.6041 18.9803C43.7898 18.9803 41.6161 21.5139 40.6599 23.024C40.3645 23.4876 40.208 24.0219 40.208 24.567C40.208 25.1121 40.3645 25.6464 40.6599 26.11C41.2161 26.9938 41.9177 27.7832 42.7368 28.4469L41.0117 30.1208C40.9529 30.176 40.9059 30.242 40.8736 30.3149C40.8413 30.3878 40.8243 30.4663 40.8236 30.5457C40.8229 30.625 40.8385 30.7038 40.8695 30.7772C40.9005 30.8507 40.9462 30.9175 41.0041 30.9736C41.0619 31.0297 41.1307 31.0741 41.2064 31.1042C41.2821 31.1342 41.3633 31.1494 41.4451 31.1487C41.5269 31.148 41.6077 31.1315 41.6829 31.1002C41.7581 31.0688 41.8261 31.0233 41.8829 30.9662L43.7633 29.1416C44.9248 29.8118 46.2528 30.1617 47.6041 30.1537C51.4185 30.1537 53.5922 27.6201 54.5484 26.11C54.8438 25.6464 55.0003 25.1121 55.0003 24.567C55.0003 24.0219 54.8438 23.4876 54.5484 23.024ZM41.7098 25.4841C41.5342 25.2085 41.4413 24.8909 41.4413 24.567C41.4413 24.2431 41.5342 23.9255 41.7098 23.6499C42.5317 22.355 44.3893 20.1759 47.6041 20.1759C48.6271 20.1704 49.6356 20.4096 50.5406 20.8724L49.3003 22.0758C48.7088 21.6948 47.9996 21.524 47.2932 21.5926C46.5867 21.6611 45.9264 21.9647 45.4243 22.4519C44.9223 22.939 44.6094 23.5797 44.5387 24.2652C44.4681 24.9508 44.6441 25.6389 45.0368 26.2128L43.6136 27.5938C42.8589 27.0018 42.2149 26.2881 41.7098 25.4841ZM49.4525 24.567C49.4525 25.0427 49.2578 25.4988 48.9111 25.8352C48.5645 26.1715 48.0944 26.3605 47.6041 26.3605C47.3297 26.3595 47.059 26.2981 46.8124 26.1811L49.2677 23.7988C49.3882 24.038 49.4514 24.3007 49.4525 24.567ZM45.7558 24.567C45.7558 24.0913 45.9505 23.6352 46.2972 23.2988C46.6438 22.9625 47.1139 22.7735 47.6041 22.7735C47.8786 22.7745 48.1493 22.8359 48.3959 22.9529L45.9406 25.3352C45.8201 25.096 45.7569 24.8333 45.7558 24.567ZM53.4985 25.4841C52.6766 26.779 50.819 28.9581 47.6041 28.9581C46.5812 28.9636 45.5727 28.7244 44.6677 28.2616L45.908 27.0582C46.4995 27.4392 47.2087 27.61 47.9151 27.5414C48.6216 27.4729 49.2819 27.1693 49.784 26.6821C50.286 26.195 50.5989 25.5543 50.6695 24.8688C50.7402 24.1832 50.5642 23.4951 50.1715 22.9212L51.5947 21.5402C52.3494 22.1322 52.9934 22.8459 53.4985 23.6499C53.674 23.9255 53.767 24.2431 53.767 24.567C53.767 24.8909 53.674 25.2085 53.4985 25.4841Z" fill="#DFF0FF"/>
<path d="M32.8656 22.7717C31.9416 21.267 29.84 18.7423 26.1513 18.7423C22.4626 18.7423 20.3609 21.267 19.4369 22.7717C19.1513 23.2337 19 23.7661 19 24.3093C19 24.8524 19.1513 25.3849 19.4369 25.8468C20.3609 27.3516 22.4626 29.8763 26.1513 29.8763C29.84 29.8763 31.9416 27.3516 32.8656 25.8468C33.1512 25.3849 33.3025 24.8524 33.3025 24.3093C33.3025 23.7661 33.1512 23.2337 32.8656 22.7717ZM31.8499 25.2231C31.0564 26.5135 29.2603 28.6848 26.1513 28.6848C23.0422 28.6848 21.2461 26.5135 20.4526 25.2231C20.2829 24.9485 20.193 24.6321 20.193 24.3093C20.193 23.9865 20.2829 23.6701 20.4526 23.3955C21.2461 22.1051 23.0422 19.9337 26.1513 19.9337C29.2603 19.9337 31.0564 22.1028 31.8499 23.3955C32.0196 23.6701 32.1095 23.9865 32.1095 24.3093C32.1095 24.6321 32.0196 24.9485 31.8499 25.2231Z" fill="#DFF0FF"/>
<path d="M26.1514 21.3307C25.5623 21.3307 24.9865 21.5054 24.4966 21.8327C24.0068 22.16 23.625 22.6252 23.3996 23.1694C23.1741 23.7137 23.1152 24.3126 23.2301 24.8904C23.345 25.4682 23.6287 25.9989 24.0453 26.4155C24.4618 26.832 24.9926 27.1157 25.5703 27.2306C26.1481 27.3456 26.747 27.2866 27.2913 27.0611C27.8356 26.8357 28.3008 26.4539 28.6281 25.9641C28.9553 25.4743 29.13 24.8984 29.13 24.3093C29.1291 23.5196 28.815 22.7625 28.2566 22.2041C27.6982 21.6458 26.9411 21.3316 26.1514 21.3307ZM26.1514 26.0964C25.798 26.0964 25.4524 25.9916 25.1586 25.7952C24.8647 25.5989 24.6356 25.3198 24.5003 24.9932C24.3651 24.6666 24.3297 24.3073 24.3986 23.9606C24.4676 23.6139 24.6378 23.2955 24.8877 23.0456C25.1377 22.7956 25.4561 22.6254 25.8028 22.5565C26.1495 22.4875 26.5088 22.5229 26.8354 22.6582C27.1619 22.7934 27.441 23.0225 27.6374 23.3164C27.8338 23.6103 27.9386 23.9558 27.9386 24.3093C27.9386 24.7833 27.7503 25.2378 27.4152 25.573C27.08 25.9081 26.6254 26.0964 26.1514 26.0964Z" fill="#DFF0FF"/>
</mask>
<g mask="url(#mask0_384_180)">
<rect x="13.9102" y="16.3564" width="24.6538" height="16.4359" fill="#DBDBDB"/>
</g>
</svg>
