<svg width="82" height="82" viewBox="0 0 82 82" fill="none" xmlns="http://www.w3.org/2000/svg">
<rect width="82" height="82" rx="41" fill="#C5F1FF"/>
<path d="M39.2108 35.5632C35.0874 35.9359 31.946 39.4201 32.0007 43.5599V43.7698C32.0007 44.5713 32.6505 45.2211 33.452 45.2211C34.2535 45.2211 34.9033 44.5713 34.9033 43.7698V43.5018C34.8597 40.96 36.7355 38.7924 39.2572 38.4707C41.9191 38.2067 44.291 40.1506 44.555 42.8126C44.5706 42.9699 44.5785 43.1279 44.5786 43.2861V43.7699C44.5786 44.5714 45.2284 45.2212 46.0299 45.2212C46.8315 45.2212 47.4812 44.5714 47.4812 43.7699V43.2861C47.4765 39.0064 44.0033 35.5409 39.7237 35.5457C39.5526 35.5458 39.3815 35.5517 39.2108 35.5632Z" fill="#231F20"/>
<path d="M39.7417 33.6104C42.9478 33.6104 45.5469 31.0113 45.5469 27.8052C45.5469 24.5991 42.9478 22 39.7417 22C36.5356 22 33.9365 24.5991 33.9365 27.8052C33.9397 31.01 36.5369 33.6072 39.7417 33.6104ZM39.7417 24.9026C41.3448 24.9026 42.6443 26.2022 42.6443 27.8052C42.6443 29.4083 41.3448 30.7078 39.7417 30.7078C38.1387 30.7078 36.8391 29.4083 36.8391 27.8052C36.8391 26.2022 38.1387 24.9026 39.7417 24.9026Z" fill="#231F20"/>
<path d="M53.2859 29.6194C52.1649 29.6752 51.2999 30.6267 51.3508 31.7479C51.4018 30.6267 50.5368 29.6752 49.4157 29.6194C48.2947 29.6752 47.4297 30.6267 47.4807 31.7479C47.4807 33.4218 49.6634 35.383 50.7509 36.2557C51.1016 36.5364 51.6 36.5364 51.9507 36.2557C53.0382 35.3849 55.2209 33.4218 55.2209 31.7479C55.2719 30.6267 54.4069 29.6753 53.2859 29.6194Z" fill="#231F20"/>
<path d="M20.3038 62V53.48H23.2078C23.9918 53.48 24.6118 53.696 25.0678 54.128C25.5238 54.552 25.7518 55.12 25.7518 55.832C25.7518 56.456 25.5638 56.968 25.1878 57.368C24.8198 57.768 24.3038 58.016 23.6398 58.112L26.9278 62H25.5238L22.2478 58.124H21.4198V62H20.3038ZM21.4198 57.128H23.0758C23.5718 57.128 23.9558 57.02 24.2278 56.804C24.4998 56.58 24.6358 56.256 24.6358 55.832C24.6358 55.408 24.4998 55.084 24.2278 54.86C23.9558 54.628 23.5718 54.512 23.0758 54.512H21.4198V57.128ZM30.1452 62.12C29.2732 62.12 28.5492 61.824 27.9732 61.232C27.4052 60.64 27.1212 59.896 27.1212 59C27.1212 58.096 27.3972 57.352 27.9492 56.768C28.5092 56.176 29.2492 55.88 30.1692 55.88C31.0972 55.88 31.8252 56.208 32.3532 56.864C32.8812 57.52 33.1132 58.324 33.0492 59.276H28.1652C28.1812 59.82 28.3812 60.276 28.7652 60.644C29.1492 61.004 29.6132 61.184 30.1572 61.184C30.9732 61.184 31.5532 60.848 31.8972 60.176H32.9532C32.8012 60.736 32.4772 61.2 31.9812 61.568C31.4852 61.936 30.8732 62.12 30.1452 62.12ZM31.3212 57.224C30.9932 56.936 30.5972 56.792 30.1332 56.792C29.6692 56.792 29.2532 56.932 28.8852 57.212C28.5252 57.492 28.3012 57.908 28.2132 58.46H31.9572C31.8612 57.916 31.6492 57.504 31.3212 57.224ZM34.9604 62V56.948H33.6884V56H34.9604V54.788C34.9604 54.188 35.1284 53.728 35.4644 53.408C35.8004 53.088 36.2444 52.928 36.7964 52.928C37.1244 52.928 37.4364 52.98 37.7324 53.084V53.996C37.5484 53.916 37.3004 53.876 36.9884 53.876C36.6444 53.876 36.3924 53.952 36.2324 54.104C36.0724 54.256 35.9924 54.52 35.9924 54.896V56H37.7324V56.948H35.9924V62H34.9604ZM41.2663 62.12C40.3943 62.12 39.6703 61.824 39.0943 61.232C38.5263 60.64 38.2423 59.896 38.2423 59C38.2423 58.096 38.5183 57.352 39.0703 56.768C39.6303 56.176 40.3703 55.88 41.2903 55.88C42.2183 55.88 42.9463 56.208 43.4743 56.864C44.0023 57.52 44.2343 58.324 44.1703 59.276H39.2863C39.3023 59.82 39.5023 60.276 39.8863 60.644C40.2703 61.004 40.7343 61.184 41.2783 61.184C42.0943 61.184 42.6743 60.848 43.0183 60.176H44.0743C43.9223 60.736 43.5983 61.2 43.1023 61.568C42.6063 61.936 41.9943 62.12 41.2663 62.12ZM42.4423 57.224C42.1143 56.936 41.7183 56.792 41.2543 56.792C40.7903 56.792 40.3743 56.932 40.0063 57.212C39.6463 57.492 39.4223 57.908 39.3343 58.46H43.0783C42.9823 57.916 42.7703 57.504 42.4423 57.224ZM45.6595 62V56H46.6915V57.164C46.8035 56.796 47.0195 56.5 47.3395 56.276C47.6675 56.052 48.0115 55.94 48.3715 55.94C48.5475 55.94 48.7035 55.956 48.8395 55.988V57.056C48.6955 56.992 48.5075 56.96 48.2755 56.96C47.8595 56.96 47.4915 57.14 47.1715 57.5C46.8515 57.86 46.6915 58.368 46.6915 59.024V62H45.6595ZM50.054 62V56H51.086V57.164C51.198 56.796 51.414 56.5 51.734 56.276C52.062 56.052 52.406 55.94 52.766 55.94C52.942 55.94 53.098 55.956 53.234 55.988V57.056C53.09 56.992 52.902 56.96 52.67 56.96C52.254 56.96 51.886 57.14 51.566 57.5C51.246 57.86 51.086 58.368 51.086 59.024V62H50.054ZM56.7213 62.12C55.8893 62.12 55.1893 61.816 54.6213 61.208C54.0613 60.6 53.7813 59.864 53.7813 59C53.7813 58.136 54.0613 57.4 54.6213 56.792C55.1893 56.184 55.8893 55.88 56.7213 55.88C57.1613 55.88 57.5693 55.98 57.9453 56.18C58.3293 56.372 58.6253 56.62 58.8333 56.924V56H59.8653V62H58.8333V61.076C58.6253 61.38 58.3293 61.632 57.9453 61.832C57.5693 62.024 57.1613 62.12 56.7213 62.12ZM56.8773 61.172C57.4693 61.172 57.9573 60.964 58.3413 60.548C58.7253 60.132 58.9173 59.616 58.9173 59C58.9173 58.384 58.7253 57.868 58.3413 57.452C57.9573 57.036 57.4693 56.828 56.8773 56.828C56.2773 56.828 55.7853 57.036 55.4013 57.452C55.0173 57.868 54.8253 58.384 54.8253 59C54.8253 59.616 55.0173 60.132 55.4013 60.548C55.7853 60.964 56.2773 61.172 56.8773 61.172ZM61.8079 62V53H62.8399V62H61.8079Z" fill="#231F20"/>
</svg>
