<svg width="30" height="27" viewBox="0 0 30 27" fill="none" xmlns="http://www.w3.org/2000/svg">
<path d="M25.3787 13.3V18.9311C25.3787 22.4887 22.4947 25.3728 18.937 25.3728H8.31668C4.75902 25.3728 1.875 22.4887 1.875 18.9311V10.1211C1.875 6.56346 4.75902 3.67944 8.31668 3.67944H16.3477" stroke="#231F20" stroke-width="2" stroke-linecap="round" stroke-linejoin="round"/>
<path d="M7.42212 9.06226H14.0533" stroke="#231F20" stroke-width="2" stroke-linecap="round" stroke-linejoin="round"/>
<path d="M17.6419 13.6619H9.56873C8.30728 13.6619 7.28467 14.6845 7.28467 15.9459V17.1774C7.28467 18.4389 8.30728 19.4615 9.56873 19.4615H17.6419C18.9033 19.4615 19.9259 18.4389 19.9259 17.1774V15.9459C19.9259 14.6845 18.9033 13.6619 17.6419 13.6619Z" stroke="#231F20" stroke-width="2" stroke-linecap="round" stroke-linejoin="round"/>
<path d="M28.1252 4.54884L21.9888 1.00171V8.08545L28.1252 4.54884Z" stroke="#231F20" stroke-width="2" stroke-linecap="round" stroke-linejoin="round"/>
</svg>
