<svg width="30" height="30" viewBox="0 0 30 30" fill="none" xmlns="http://www.w3.org/2000/svg">
<path d="M7.89062 18.7922L12.0606 13.3725L16.8171 17.1089L20.8978 11.8423" stroke="#231F20" stroke-width="2" stroke-linecap="round" stroke-linejoin="round"/>
<path fill-rule="evenodd" clip-rule="evenodd" d="M25.6545 6.72869C27.1335 6.72869 28.3325 5.52974 28.3325 4.05075C28.3325 2.57176 27.1335 1.3728 25.6545 1.3728C24.1755 1.3728 22.9766 2.57176 22.9766 4.05075C22.9766 5.52974 24.1755 6.72869 25.6545 6.72869Z" stroke="#231F20" stroke-width="2" stroke-linecap="round" stroke-linejoin="round"/>
<path d="M18.5898 2.54602H8.46461C4.26916 2.54602 1.66772 5.51726 1.66772 9.71271V20.9728C1.66772 25.1683 4.21815 28.1268 8.46461 28.1268H20.4516C24.6471 28.1268 27.2485 25.1683 27.2485 20.9728V11.1665" stroke="#231F20" stroke-width="2" stroke-linecap="round" stroke-linejoin="round"/>
</svg>
