<svg width="28" height="32" viewBox="0 0 28 32" fill="none" xmlns="http://www.w3.org/2000/svg">
<path d="M10.2895 29.2834C11.0471 30.2194 12.1598 30.8251 13.3811 30.9666C14.6025 31.108 15.8319 30.7735 16.7972 30.0371C17.0941 29.8193 17.3612 29.566 17.5922 29.2834M1.10208 18.7317V18.4047C1.15084 17.437 1.46595 16.4994 2.01493 15.6885C2.92871 14.7145 3.55425 13.5209 3.8259 12.233C3.8259 11.2375 3.8259 10.2279 3.91424 9.23242C4.37067 4.4401 9.1852 1.12671 13.9408 1.12671H14.0586C18.8143 1.12671 23.6288 4.4401 24.1 9.23242C24.1883 10.2279 24.1 11.2375 24.1736 12.233C24.4489 13.5239 25.0738 14.7212 25.9846 15.7028C26.5376 16.5064 26.8533 17.4406 26.8974 18.4047V18.7175C26.9303 20.0176 26.4753 21.2853 25.6165 22.2869C24.4816 23.458 22.9415 24.1865 21.2878 24.3346C16.4386 24.8466 11.5461 24.8466 6.69696 24.3346C5.04514 24.1801 3.50729 23.4526 2.36829 22.2869C1.52271 21.2846 1.07388 20.0244 1.10208 18.7317Z" stroke="#231F20" stroke-width="2" stroke-linecap="round" stroke-linejoin="round"/>
</svg>
