<svg width="82" height="82" viewBox="0 0 82 82" fill="none" xmlns="http://www.w3.org/2000/svg">
<rect width="82" height="82" rx="41" fill="#FFD5C0"/>
<path d="M43.8991 21.5889C44.2021 21.6852 44.4291 21.8857 44.6493 22.1071C46.0175 23.4814 47.3913 24.8501 48.7628 26.2211C49.3041 26.7624 49.3092 27.3611 48.7724 27.8985C47.3175 29.3551 45.862 30.8105 44.4049 32.2648C44.0173 32.6518 43.5532 32.7391 43.1195 32.5177C42.4763 32.1888 42.345 31.3535 42.8666 30.8252C43.6907 29.9898 44.5243 29.1641 45.3545 28.335C45.4086 28.2809 45.4706 28.2342 45.5291 28.184C45.5229 28.1649 45.5167 28.1452 45.5111 28.126C45.4334 28.126 45.3556 28.126 45.2779 28.126C41.3576 28.126 37.4368 28.126 33.5165 28.126C32.937 28.126 32.5258 27.8123 32.4081 27.2868C32.2689 26.6672 32.7404 26.047 33.374 26.0161C33.4653 26.0116 33.5565 26.0138 33.6478 26.0138C37.519 26.0138 41.3903 26.0138 45.2616 26.0138C45.3421 26.0138 45.4232 26.0138 45.5505 26.0138C45.4655 25.9237 45.4159 25.8685 45.3635 25.8155C44.6144 25.0647 43.8934 24.2818 43.1066 23.5727C42.3653 22.9041 42.5337 21.8739 43.4777 21.5889L43.8996 21.5889L43.8991 21.5889Z" fill="#231F20"/>
<path d="M36.055 36.641L36.2792 36.641C40.1994 36.641 44.1197 36.641 48.04 36.641C48.7271 36.641 49.1941 37.1 49.1721 37.7478C49.1546 38.2677 48.7294 38.7104 48.2101 38.747C48.1194 38.7532 48.0276 38.751 47.9363 38.751C44.051 38.751 40.1662 38.751 36.2808 38.751C36.2059 38.751 36.1305 38.751 36.0105 38.751C36.0899 38.8371 36.1378 38.8923 36.1896 38.9442C36.9945 39.7485 37.8045 40.5489 38.6043 41.3583C39.1146 41.8753 39.0104 42.6836 38.4009 43.034C37.9712 43.2807 37.4648 43.208 37.0886 42.8351C36.4701 42.2217 35.8556 41.6039 35.2399 40.9876C34.4204 40.1681 33.6003 39.3491 32.7813 38.5285C32.2603 38.0069 32.2564 37.398 32.7723 36.8809C34.2317 35.4193 35.6922 33.9582 37.1545 32.4994C37.6591 31.9958 38.3671 32.0099 38.7806 32.5247C39.1264 32.955 39.0898 33.5431 38.6792 33.9571C37.858 34.7851 37.0317 35.608 36.2059 36.432C36.1513 36.4861 36.0871 36.5306 36.0268 36.5796C36.0364 36.5999 36.046 36.6202 36.0555 36.6404L36.055 36.641Z" fill="#231F20"/>
<path d="M29.482 62.144C28.618 62.144 27.91 61.908 27.358 61.436C26.814 60.964 26.534 60.392 26.518 59.72H27.634C27.682 60.16 27.886 60.5 28.246 60.74C28.614 60.98 29.022 61.1 29.47 61.1C29.934 61.1 30.318 60.984 30.622 60.752C30.926 60.52 31.078 60.212 31.078 59.828C31.078 59.18 30.674 58.704 29.866 58.4L28.69 57.968C28.018 57.736 27.522 57.428 27.202 57.044C26.89 56.66 26.73 56.168 26.722 55.568C26.722 54.888 26.962 54.348 27.442 53.948C27.93 53.54 28.554 53.336 29.314 53.336C30.114 53.336 30.746 53.568 31.21 54.032C31.682 54.488 31.946 55.024 32.002 55.64H30.898C30.794 55.216 30.594 54.9 30.298 54.692C30.01 54.484 29.674 54.38 29.29 54.38C28.874 54.38 28.526 54.484 28.246 54.692C27.974 54.9 27.838 55.18 27.838 55.532C27.838 55.884 27.934 56.164 28.126 56.372C28.318 56.58 28.63 56.76 29.062 56.912L30.154 57.308C30.826 57.548 31.334 57.868 31.678 58.268C32.022 58.66 32.194 59.168 32.194 59.792C32.194 60.504 31.942 61.076 31.438 61.508C30.934 61.932 30.282 62.144 29.482 62.144ZM38.8002 62L37.3122 57.692L35.8362 62H34.9242L32.8842 56H33.9642L35.4162 60.38L36.9162 56H37.7082L39.2082 60.38L40.6602 56H41.7522L39.7122 62H38.8002ZM45.3131 62.12C44.4811 62.12 43.7811 61.816 43.2131 61.208C42.6531 60.6 42.3731 59.864 42.3731 59C42.3731 58.136 42.6531 57.4 43.2131 56.792C43.7811 56.184 44.4811 55.88 45.3131 55.88C45.7531 55.88 46.1611 55.98 46.5371 56.18C46.9211 56.372 47.2171 56.62 47.4251 56.924V56H48.4571V62H47.4251V61.076C47.2171 61.38 46.9211 61.632 46.5371 61.832C46.1611 62.024 45.7531 62.12 45.3131 62.12ZM45.4691 61.172C46.0611 61.172 46.5491 60.964 46.9331 60.548C47.3171 60.132 47.5091 59.616 47.5091 59C47.5091 58.384 47.3171 57.868 46.9331 57.452C46.5491 57.036 46.0611 56.828 45.4691 56.828C44.8691 56.828 44.3771 57.036 43.9931 57.452C43.6091 57.868 43.4171 58.384 43.4171 59C43.4171 59.616 43.6091 60.132 43.9931 60.548C44.3771 60.964 44.8691 61.172 45.4691 61.172ZM51.4317 64.508H50.3997V56H51.4317V56.924C51.6397 56.62 51.9317 56.372 52.3077 56.18C52.6917 55.98 53.1037 55.88 53.5437 55.88C54.3757 55.88 55.0717 56.184 55.6317 56.792C56.1997 57.4 56.4837 58.136 56.4837 59C56.4837 59.864 56.1997 60.6 55.6317 61.208C55.0717 61.816 54.3757 62.12 53.5437 62.12C53.1037 62.12 52.6917 62.024 52.3077 61.832C51.9317 61.632 51.6397 61.38 51.4317 61.076V64.508ZM51.9237 60.548C52.3077 60.964 52.7957 61.172 53.3877 61.172C53.9797 61.172 54.4677 60.964 54.8517 60.548C55.2357 60.132 55.4277 59.616 55.4277 59C55.4277 58.384 55.2357 57.868 54.8517 57.452C54.4677 57.036 53.9797 56.828 53.3877 56.828C52.7957 56.828 52.3077 57.036 51.9237 57.452C51.5397 57.868 51.3477 58.384 51.3477 59C51.3477 59.616 51.5397 60.132 51.9237 60.548Z" fill="#231F20"/>
</svg>
