<svg width="928" height="265" viewBox="0 0 928 265" fill="none" xmlns="http://www.w3.org/2000/svg">
<rect x="0.5" y="0.5" width="927" height="517" rx="11.5" fill="white" stroke="#DBDBDB"/>
<rect x="9.3501" y="4" width="911.637" height="46" rx="9" fill="#FFFDD2"/>
<path d="M78.7781 34V19.8H83.8981C85.2048 19.8 86.2448 20.18 87.0181 20.94C87.8048 21.6867 88.1981 22.6533 88.1981 23.84C88.1981 24.84 87.9181 25.6667 87.3581 26.32C86.8114 26.96 86.0181 27.3933 84.9781 27.62L90.2581 34H87.3781L82.1781 27.76H81.1181V34H78.7781ZM81.1181 25.72H83.6181C84.3114 25.72 84.8581 25.56 85.2581 25.24C85.6581 24.9067 85.8581 24.44 85.8581 23.84C85.8581 23.24 85.6581 22.78 85.2581 22.46C84.8581 22.1267 84.3114 21.96 83.6181 21.96H81.1181V25.72ZM95.8576 34.2C94.3643 34.2 93.1376 33.7133 92.1776 32.74C91.2176 31.7533 90.7376 30.5067 90.7376 29C90.7376 27.4933 91.211 26.2533 92.1576 25.28C93.1043 24.2933 94.3443 23.8 95.8776 23.8C97.4243 23.8 98.671 24.34 99.6176 25.42C100.564 26.4867 100.984 27.86 100.878 29.54H92.9176C92.9443 30.3133 93.2376 30.96 93.7976 31.48C94.3576 32 95.071 32.26 95.9376 32.26C97.1643 32.26 98.0043 31.7933 98.4576 30.86H100.758C100.451 31.8333 99.8643 32.6333 98.9976 33.26C98.131 33.8867 97.0843 34.2 95.8576 34.2ZM95.8176 25.64C95.0976 25.64 94.4776 25.8467 93.9576 26.26C93.451 26.66 93.1243 27.2333 92.9776 27.98H98.5176C98.3576 27.2067 98.031 26.6267 97.5376 26.24C97.0443 25.84 96.471 25.64 95.8176 25.64ZM108.057 38.38C106.697 38.38 105.577 38.0467 104.697 37.38C103.83 36.7133 103.33 35.8467 103.197 34.78H105.357C105.744 35.9267 106.664 36.5 108.117 36.5C108.904 36.5 109.55 36.24 110.057 35.72C110.577 35.2133 110.837 34.4933 110.837 33.56V32.38C110.517 32.8333 110.07 33.2067 109.497 33.5C108.924 33.7933 108.304 33.94 107.637 33.94C106.29 33.94 105.15 33.4533 104.217 32.48C103.297 31.4933 102.837 30.2867 102.837 28.86C102.837 27.4467 103.297 26.2533 104.217 25.28C105.15 24.2933 106.29 23.8 107.637 23.8C108.304 23.8 108.924 23.9467 109.497 24.24C110.07 24.52 110.517 24.8867 110.837 25.34V24H113.037V33.38C113.037 35.0333 112.564 36.28 111.617 37.12C110.684 37.96 109.497 38.38 108.057 38.38ZM105.917 31.06C106.49 31.6333 107.197 31.92 108.037 31.92C108.877 31.92 109.584 31.6333 110.157 31.06C110.73 30.4733 111.017 29.74 111.017 28.86C111.017 27.98 110.73 27.2533 110.157 26.68C109.584 26.0933 108.877 25.8 108.037 25.8C107.197 25.8 106.49 26.0933 105.917 26.68C105.344 27.2533 105.057 27.98 105.057 28.86C105.057 29.74 105.344 30.4733 105.917 31.06ZM117.498 21.82C117.098 21.82 116.751 21.68 116.458 21.4C116.164 21.1067 116.018 20.7533 116.018 20.34C116.018 19.94 116.164 19.6 116.458 19.32C116.751 19.0267 117.098 18.88 117.498 18.88C117.911 18.88 118.258 19.0267 118.538 19.32C118.818 19.6 118.958 19.94 118.958 20.34C118.958 20.7533 118.818 21.1067 118.538 21.4C118.258 21.68 117.911 21.82 117.498 21.82ZM116.398 34V24H118.598V34H116.398ZM125.474 34.2C124.287 34.2 123.287 33.9067 122.474 33.32C121.674 32.7333 121.247 31.9467 121.194 30.96H123.474C123.634 31.9467 124.321 32.44 125.534 32.44C126.027 32.44 126.421 32.3533 126.714 32.18C127.007 31.9933 127.154 31.7267 127.154 31.38C127.154 31.0333 127.041 30.76 126.814 30.56C126.587 30.36 126.207 30.1933 125.674 30.06L124.034 29.62C122.327 29.1667 121.474 28.16 121.474 26.6C121.474 25.76 121.814 25.0867 122.494 24.58C123.174 24.06 124.074 23.8 125.194 23.8C126.274 23.8 127.161 24.0733 127.854 24.62C128.547 25.1667 128.934 25.8933 129.014 26.8H126.814C126.601 25.9733 126.054 25.56 125.174 25.56C124.734 25.56 124.381 25.6533 124.114 25.84C123.847 26.0133 123.714 26.26 123.714 26.58C123.714 27.1533 124.161 27.5533 125.054 27.78L126.734 28.22C128.507 28.6733 129.394 29.68 129.394 31.24C129.394 32.1867 129.027 32.92 128.294 33.44C127.574 33.9467 126.634 34.2 125.474 34.2ZM136.167 34.1C135.153 34.1 134.327 33.82 133.687 33.26C133.06 32.6867 132.747 31.86 132.747 30.78V25.96H130.667V24H132.747V21.22H134.947V24H137.807V25.96H134.947V30.42C134.947 31.0333 135.08 31.4733 135.347 31.74C135.613 31.9933 136.04 32.12 136.627 32.12C137.107 32.12 137.5 32.0533 137.807 31.92V33.88C137.327 34.0267 136.78 34.1 136.167 34.1ZM144.576 34.2C143.083 34.2 141.856 33.7133 140.896 32.74C139.936 31.7533 139.456 30.5067 139.456 29C139.456 27.4933 139.93 26.2533 140.876 25.28C141.823 24.2933 143.063 23.8 144.596 23.8C146.143 23.8 147.39 24.34 148.336 25.42C149.283 26.4867 149.703 27.86 149.596 29.54H141.636C141.663 30.3133 141.956 30.96 142.516 31.48C143.076 32 143.79 32.26 144.656 32.26C145.883 32.26 146.723 31.7933 147.176 30.86H149.476C149.17 31.8333 148.583 32.6333 147.716 33.26C146.85 33.8867 145.803 34.2 144.576 34.2ZM144.536 25.64C143.816 25.64 143.196 25.8467 142.676 26.26C142.17 26.66 141.843 27.2333 141.696 27.98H147.236C147.076 27.2067 146.75 26.6267 146.256 26.24C145.763 25.84 145.19 25.64 144.536 25.64ZM152.256 34V24H154.456V25.78C154.642 25.22 154.982 24.7667 155.476 24.42C155.982 24.0733 156.522 23.9 157.096 23.9C157.442 23.9 157.729 23.9267 157.956 23.98V26.24C157.636 26.12 157.269 26.06 156.856 26.06C156.189 26.06 155.622 26.3333 155.156 26.88C154.689 27.4133 154.456 28.16 154.456 29.12V34H152.256ZM164.322 34.2C162.828 34.2 161.602 33.7133 160.642 32.74C159.682 31.7533 159.202 30.5067 159.202 29C159.202 27.4933 159.675 26.2533 160.622 25.28C161.568 24.2933 162.808 23.8 164.342 23.8C165.888 23.8 167.135 24.34 168.082 25.42C169.028 26.4867 169.448 27.86 169.342 29.54H161.382C161.408 30.3133 161.702 30.96 162.262 31.48C162.822 32 163.535 32.26 164.402 32.26C165.628 32.26 166.468 31.7933 166.922 30.86H169.222C168.915 31.8333 168.328 32.6333 167.462 33.26C166.595 33.8867 165.548 34.2 164.322 34.2ZM164.282 25.64C163.562 25.64 162.942 25.8467 162.422 26.26C161.915 26.66 161.588 27.2333 161.442 27.98H166.982C166.822 27.2067 166.495 26.6267 166.002 26.24C165.508 25.84 164.935 25.64 164.282 25.64ZM176.101 34.2C174.741 34.2 173.594 33.6933 172.661 32.68C171.741 31.6667 171.281 30.44 171.281 29C171.281 27.56 171.741 26.3333 172.661 25.32C173.594 24.3067 174.741 23.8 176.101 23.8C176.781 23.8 177.408 23.9533 177.981 24.26C178.554 24.5533 178.994 24.9133 179.301 25.34V19H181.501V34H179.301V32.66C178.994 33.0867 178.554 33.4533 177.981 33.76C177.408 34.0533 176.781 34.2 176.101 34.2ZM174.361 31.28C174.921 31.8933 175.634 32.2 176.501 32.2C177.368 32.2 178.081 31.8933 178.641 31.28C179.201 30.6667 179.481 29.9067 179.481 29C179.481 28.0933 179.201 27.3333 178.641 26.72C178.081 26.1067 177.368 25.8 176.501 25.8C175.634 25.8 174.921 26.1067 174.361 26.72C173.801 27.3333 173.521 28.0933 173.521 29C173.521 29.9067 173.801 30.6667 174.361 31.28ZM195.748 34.24C194.055 34.24 192.688 33.7133 191.648 32.66C190.608 31.6067 190.088 30.2 190.088 28.44V19.8H192.428V28.48C192.428 29.5867 192.728 30.4467 193.328 31.06C193.928 31.6733 194.735 31.98 195.748 31.98C196.762 31.98 197.562 31.6733 198.148 31.06C198.748 30.4467 199.048 29.5867 199.048 28.48V19.8H201.388V28.44C201.388 30.1867 200.862 31.5933 199.808 32.66C198.755 33.7133 197.402 34.24 195.748 34.24ZM208.147 34.2C206.96 34.2 205.96 33.9067 205.147 33.32C204.347 32.7333 203.92 31.9467 203.867 30.96H206.147C206.307 31.9467 206.993 32.44 208.207 32.44C208.7 32.44 209.093 32.3533 209.387 32.18C209.68 31.9933 209.827 31.7267 209.827 31.38C209.827 31.0333 209.713 30.76 209.487 30.56C209.26 30.36 208.88 30.1933 208.347 30.06L206.707 29.62C205 29.1667 204.147 28.16 204.147 26.6C204.147 25.76 204.487 25.0867 205.167 24.58C205.847 24.06 206.747 23.8 207.867 23.8C208.947 23.8 209.833 24.0733 210.527 24.62C211.22 25.1667 211.607 25.8933 211.687 26.8H209.487C209.273 25.9733 208.727 25.56 207.847 25.56C207.407 25.56 207.053 25.6533 206.787 25.84C206.52 26.0133 206.387 26.26 206.387 26.58C206.387 27.1533 206.833 27.5533 207.727 27.78L209.407 28.22C211.18 28.6733 212.067 29.68 212.067 31.24C212.067 32.1867 211.7 32.92 210.967 33.44C210.247 33.9467 209.307 34.2 208.147 34.2ZM219.115 34.2C217.621 34.2 216.395 33.7133 215.435 32.74C214.475 31.7533 213.995 30.5067 213.995 29C213.995 27.4933 214.468 26.2533 215.415 25.28C216.361 24.2933 217.601 23.8 219.135 23.8C220.681 23.8 221.928 24.34 222.875 25.42C223.821 26.4867 224.241 27.86 224.135 29.54H216.175C216.201 30.3133 216.495 30.96 217.055 31.48C217.615 32 218.328 32.26 219.195 32.26C220.421 32.26 221.261 31.7933 221.715 30.86H224.015C223.708 31.8333 223.121 32.6333 222.255 33.26C221.388 33.8867 220.341 34.2 219.115 34.2ZM219.075 25.64C218.355 25.64 217.735 25.8467 217.215 26.26C216.708 26.66 216.381 27.2333 216.235 27.98H221.775C221.615 27.2067 221.288 26.6267 220.795 26.24C220.301 25.84 219.728 25.64 219.075 25.64ZM226.794 34V24H228.994V25.78C229.181 25.22 229.521 24.7667 230.014 24.42C230.521 24.0733 231.061 23.9 231.634 23.9C231.981 23.9 232.267 23.9267 232.494 23.98V26.24C232.174 26.12 231.807 26.06 231.394 26.06C230.727 26.06 230.161 26.3333 229.694 26.88C229.227 27.4133 228.994 28.16 228.994 29.12V34H226.794ZM238.136 34.2C236.949 34.2 235.949 33.9067 235.136 33.32C234.336 32.7333 233.909 31.9467 233.856 30.96H236.136C236.296 31.9467 236.982 32.44 238.196 32.44C238.689 32.44 239.082 32.3533 239.376 32.18C239.669 31.9933 239.816 31.7267 239.816 31.38C239.816 31.0333 239.702 30.76 239.476 30.56C239.249 30.36 238.869 30.1933 238.336 30.06L236.696 29.62C234.989 29.1667 234.136 28.16 234.136 26.6C234.136 25.76 234.476 25.0867 235.156 24.58C235.836 24.06 236.736 23.8 237.856 23.8C238.936 23.8 239.822 24.0733 240.516 24.62C241.209 25.1667 241.596 25.8933 241.676 26.8H239.476C239.262 25.9733 238.716 25.56 237.836 25.56C237.396 25.56 237.042 25.6533 236.776 25.84C236.509 26.0133 236.376 26.26 236.376 26.58C236.376 27.1533 236.822 27.5533 237.716 27.78L239.396 28.22C241.169 28.6733 242.056 29.68 242.056 31.24C242.056 32.1867 241.689 32.92 240.956 33.44C240.236 33.9467 239.296 34.2 238.136 34.2Z" fill="#231F20"/>
<g clip-path="url(#clip0_294_2275)">
<g filter="url(#filter0_d_294_2275)">
<rect x="9.3501" y="59" width="243.103" height="38" rx="19" fill="#F7F07A"/>
</g>
<g filter="url(#filter1_d_294_2275)">
<rect x="487" y="59" width="130" height="38" rx="19" fill="#F7F07A"/>
</g>
<g filter="url(#filter2_d_294_2275)">
<rect x="642.821" y="59" width="163.627" height="38" rx="19" fill="#F7F07A"/>
</g>
<g filter="url(#filter3_d_294_2275)">
<rect x="818" y="59" width="103" height="38" rx="19" fill="#F7F07A"/>
</g>
<g filter="url(#filter4_d_294_2275)">
<rect x="276" y="59" width="191" height="38" rx="19" fill="#231F20"/>
</g>
<path d="M120.709 83H119.065L114.913 77.732V83H113.005V74.48H114.649L118.789 79.748V74.48H120.709V83ZM125.624 83.132C124.848 83.132 124.188 82.824 123.644 82.208C123.108 81.592 122.84 80.856 122.84 80C122.84 79.144 123.108 78.408 123.644 77.792C124.188 77.176 124.848 76.868 125.624 76.868C126.312 76.868 126.856 77.112 127.256 77.6V77H129.068V83H127.256V82.4C126.856 82.888 126.312 83.132 125.624 83.132ZM125.036 81.068C125.292 81.348 125.624 81.488 126.032 81.488C126.44 81.488 126.768 81.348 127.016 81.068C127.272 80.788 127.4 80.432 127.4 80C127.4 79.568 127.272 79.212 127.016 78.932C126.768 78.652 126.44 78.512 126.032 78.512C125.624 78.512 125.292 78.652 125.036 78.932C124.788 79.212 124.664 79.568 124.664 80C124.664 80.432 124.788 80.788 125.036 81.068ZM139.072 83V79.892C139.072 78.972 138.784 78.512 138.208 78.512C137.52 78.512 137.16 79.012 137.128 80.012V83H135.316V79.892C135.316 78.972 135.028 78.512 134.452 78.512C134.116 78.512 133.852 78.644 133.66 78.908C133.468 79.164 133.372 79.556 133.372 80.084V83H131.56V77H133.372V77.612C133.756 77.116 134.268 76.868 134.908 76.868C135.748 76.868 136.364 77.22 136.756 77.924C136.932 77.58 137.196 77.32 137.548 77.144C137.9 76.96 138.252 76.868 138.604 76.868C139.332 76.868 139.892 77.108 140.284 77.588C140.684 78.068 140.884 78.732 140.884 79.58V83H139.072ZM146.114 83.132C145.186 83.132 144.422 82.836 143.822 82.244C143.23 81.652 142.934 80.9 142.934 79.988C142.934 79.092 143.234 78.348 143.834 77.756C144.442 77.164 145.202 76.868 146.114 76.868C146.554 76.868 146.966 76.944 147.35 77.096C147.742 77.248 148.086 77.468 148.382 77.756C148.686 78.044 148.922 78.416 149.09 78.872C149.258 79.328 149.334 79.844 149.318 80.42H144.698C144.73 80.748 144.874 81.024 145.13 81.248C145.386 81.464 145.746 81.572 146.21 81.572C146.474 81.572 146.714 81.52 146.93 81.416C147.146 81.304 147.29 81.168 147.362 81.008H149.258C149.066 81.64 148.682 82.152 148.106 82.544C147.53 82.936 146.866 83.132 146.114 83.132ZM146.066 78.308C145.722 78.308 145.434 78.396 145.202 78.572C144.978 78.748 144.826 78.98 144.746 79.268H147.314C147.226 78.94 147.062 78.7 146.822 78.548C146.59 78.388 146.338 78.308 146.066 78.308Z" fill="#231F20"/>
<path d="M534.881 83L533.069 78.836L531.257 83H529.445L527.477 74.48H529.517L530.681 79.88L533.069 74.336L535.469 79.88L536.633 74.48H538.673L536.693 83H534.881ZM542.516 83.132C541.74 83.132 541.08 82.824 540.536 82.208C540 81.592 539.732 80.856 539.732 80C539.732 79.144 540 78.408 540.536 77.792C541.08 77.176 541.74 76.868 542.516 76.868C543.204 76.868 543.748 77.112 544.148 77.6V77H545.96V83H544.148V82.4C543.748 82.888 543.204 83.132 542.516 83.132ZM541.928 81.068C542.184 81.348 542.516 81.488 542.924 81.488C543.332 81.488 543.66 81.348 543.908 81.068C544.164 80.788 544.292 80.432 544.292 80C544.292 79.568 544.164 79.212 543.908 78.932C543.66 78.652 543.332 78.512 542.924 78.512C542.516 78.512 542.184 78.652 541.928 78.932C541.68 79.212 541.556 79.568 541.556 80C541.556 80.432 541.68 80.788 541.928 81.068ZM548.451 83V74H550.263V83H548.451ZM552.756 83V74H554.568V83H552.756ZM559.88 83.132C558.952 83.132 558.188 82.836 557.588 82.244C556.996 81.652 556.7 80.9 556.7 79.988C556.7 79.092 557 78.348 557.6 77.756C558.208 77.164 558.968 76.868 559.88 76.868C560.32 76.868 560.732 76.944 561.116 77.096C561.508 77.248 561.852 77.468 562.148 77.756C562.452 78.044 562.688 78.416 562.856 78.872C563.024 79.328 563.1 79.844 563.084 80.42H558.464C558.496 80.748 558.64 81.024 558.896 81.248C559.152 81.464 559.512 81.572 559.976 81.572C560.24 81.572 560.48 81.52 560.696 81.416C560.912 81.304 561.056 81.168 561.128 81.008H563.024C562.832 81.64 562.448 82.152 561.872 82.544C561.296 82.936 560.632 83.132 559.88 83.132ZM559.832 78.308C559.488 78.308 559.2 78.396 558.968 78.572C558.744 78.748 558.592 78.98 558.512 79.268H561.08C560.992 78.94 560.828 78.7 560.588 78.548C560.356 78.388 560.104 78.308 559.832 78.308ZM568.128 83.072C567.424 83.072 566.844 82.88 566.388 82.496C565.94 82.104 565.716 81.54 565.716 80.804V78.572H564.516V77H565.716V75.332H567.528V77H569.208V78.572H567.528V80.432C567.528 80.792 567.608 81.052 567.768 81.212C567.928 81.372 568.188 81.452 568.548 81.452C568.82 81.452 569.04 81.416 569.208 81.344V82.952C568.944 83.032 568.584 83.072 568.128 83.072ZM573.777 83.132C572.977 83.132 572.317 82.936 571.797 82.544C571.285 82.144 571.013 81.644 570.981 81.044H572.889C572.905 81.276 573.001 81.456 573.177 81.584C573.353 81.704 573.573 81.764 573.837 81.764C574.285 81.764 574.509 81.636 574.509 81.38C574.509 81.252 574.457 81.156 574.353 81.092C574.257 81.02 574.081 80.948 573.825 80.876L572.613 80.564C571.605 80.3 571.101 79.672 571.101 78.68C571.101 78.144 571.325 77.708 571.773 77.372C572.221 77.036 572.833 76.868 573.609 76.868C574.297 76.868 574.869 77.04 575.325 77.384C575.789 77.72 576.045 78.196 576.093 78.812H574.269C574.197 78.444 573.965 78.26 573.573 78.26C573.165 78.26 572.961 78.388 572.961 78.644C572.961 78.868 573.165 79.024 573.573 79.112L574.665 79.4C575.265 79.56 575.697 79.792 575.961 80.096C576.225 80.4 576.357 80.796 576.357 81.284C576.357 81.836 576.117 82.284 575.637 82.628C575.157 82.964 574.537 83.132 573.777 83.132Z" fill="#231F20"/>
<path d="M690.234 83V74.48H693.138C694.338 74.48 695.362 74.896 696.21 75.728C697.058 76.56 697.482 77.564 697.482 78.74C697.482 79.916 697.058 80.92 696.21 81.752C695.362 82.584 694.338 83 693.138 83H690.234ZM692.142 81.248H693.138C693.842 81.248 694.418 81.008 694.866 80.528C695.322 80.04 695.55 79.444 695.55 78.74C695.55 78.036 695.322 77.444 694.866 76.964C694.418 76.476 693.842 76.232 693.138 76.232H692.142V81.248ZM702.08 83.132C701.304 83.132 700.644 82.824 700.1 82.208C699.564 81.592 699.296 80.856 699.296 80C699.296 79.144 699.564 78.408 700.1 77.792C700.644 77.176 701.304 76.868 702.08 76.868C702.768 76.868 703.312 77.112 703.712 77.6V77H705.524V83H703.712V82.4C703.312 82.888 702.768 83.132 702.08 83.132ZM701.492 81.068C701.748 81.348 702.08 81.488 702.488 81.488C702.896 81.488 703.224 81.348 703.472 81.068C703.728 80.788 703.856 80.432 703.856 80C703.856 79.568 703.728 79.212 703.472 78.932C703.224 78.652 702.896 78.512 702.488 78.512C702.08 78.512 701.748 78.652 701.492 78.932C701.244 79.212 701.12 79.568 701.12 80C701.12 80.432 701.244 80.788 701.492 81.068ZM711.075 83.072C710.371 83.072 709.791 82.88 709.335 82.496C708.887 82.104 708.663 81.54 708.663 80.804V78.572H707.463V77H708.663V75.332H710.475V77H712.155V78.572H710.475V80.432C710.475 80.792 710.555 81.052 710.715 81.212C710.875 81.372 711.135 81.452 711.495 81.452C711.767 81.452 711.987 81.416 712.155 81.344V82.952C711.891 83.032 711.531 83.072 711.075 83.072ZM717.038 83.132C716.11 83.132 715.346 82.836 714.746 82.244C714.154 81.652 713.858 80.9 713.858 79.988C713.858 79.092 714.158 78.348 714.758 77.756C715.366 77.164 716.126 76.868 717.038 76.868C717.478 76.868 717.89 76.944 718.274 77.096C718.666 77.248 719.01 77.468 719.306 77.756C719.61 78.044 719.846 78.416 720.014 78.872C720.182 79.328 720.258 79.844 720.242 80.42H715.622C715.654 80.748 715.798 81.024 716.054 81.248C716.31 81.464 716.67 81.572 717.134 81.572C717.398 81.572 717.638 81.52 717.854 81.416C718.07 81.304 718.214 81.168 718.286 81.008H720.182C719.99 81.64 719.606 82.152 719.03 82.544C718.454 82.936 717.79 83.132 717.038 83.132ZM716.99 78.308C716.646 78.308 716.358 78.396 716.126 78.572C715.902 78.748 715.75 78.98 715.67 79.268H718.238C718.15 78.94 717.986 78.7 717.746 78.548C717.514 78.388 717.262 78.308 716.99 78.308ZM721.546 84.32L726.178 74.48H727.81L723.178 84.32H721.546ZM731.446 83V76.304H729.274V74.48H735.562V76.304H733.366V83H731.446ZM738.392 76.184C738.088 76.184 737.824 76.076 737.6 75.86C737.376 75.636 737.264 75.368 737.264 75.056C737.264 74.744 737.376 74.48 737.6 74.264C737.824 74.04 738.088 73.928 738.392 73.928C738.712 73.928 738.98 74.04 739.196 74.264C739.42 74.48 739.532 74.744 739.532 75.056C739.532 75.368 739.42 75.636 739.196 75.86C738.98 76.076 738.712 76.184 738.392 76.184ZM737.492 83V77H739.304V83H737.492ZM749.309 83V79.892C749.309 78.972 749.021 78.512 748.445 78.512C747.757 78.512 747.397 79.012 747.365 80.012V83H745.553V79.892C745.553 78.972 745.265 78.512 744.689 78.512C744.353 78.512 744.089 78.644 743.897 78.908C743.705 79.164 743.609 79.556 743.609 80.084V83H741.797V77H743.609V77.612C743.993 77.116 744.505 76.868 745.145 76.868C745.985 76.868 746.601 77.22 746.993 77.924C747.169 77.58 747.433 77.32 747.785 77.144C748.137 76.96 748.489 76.868 748.841 76.868C749.569 76.868 750.129 77.108 750.521 77.588C750.921 78.068 751.121 78.732 751.121 79.58V83H749.309ZM756.351 83.132C755.423 83.132 754.659 82.836 754.059 82.244C753.467 81.652 753.171 80.9 753.171 79.988C753.171 79.092 753.471 78.348 754.071 77.756C754.679 77.164 755.439 76.868 756.351 76.868C756.791 76.868 757.203 76.944 757.587 77.096C757.979 77.248 758.323 77.468 758.619 77.756C758.923 78.044 759.159 78.416 759.327 78.872C759.495 79.328 759.571 79.844 759.555 80.42H754.935C754.967 80.748 755.111 81.024 755.367 81.248C755.623 81.464 755.983 81.572 756.447 81.572C756.711 81.572 756.951 81.52 757.167 81.416C757.383 81.304 757.527 81.168 757.599 81.008H759.495C759.303 81.64 758.919 82.152 758.343 82.544C757.767 82.936 757.103 83.132 756.351 83.132ZM756.303 78.308C755.959 78.308 755.671 78.396 755.439 78.572C755.215 78.748 755.063 78.98 754.983 79.268H757.551C757.463 78.94 757.299 78.7 757.059 78.548C756.827 78.388 756.575 78.308 756.303 78.308Z" fill="#231F20"/>
<path d="M852.642 83.144C851.65 83.144 850.85 82.856 850.242 82.28C849.634 81.704 849.314 81.032 849.282 80.264H851.19C851.254 80.616 851.414 80.892 851.67 81.092C851.934 81.284 852.258 81.38 852.642 81.38C852.97 81.38 853.234 81.312 853.434 81.176C853.642 81.04 853.746 80.856 853.746 80.624C853.746 80.216 853.374 79.908 852.63 79.7L851.802 79.484C851.09 79.292 850.53 78.98 850.122 78.548C849.714 78.116 849.506 77.576 849.498 76.928C849.498 76.136 849.762 75.508 850.29 75.044C850.826 74.572 851.538 74.336 852.426 74.336C853.322 74.336 854.05 74.608 854.61 75.152C855.17 75.688 855.466 76.304 855.498 77H853.602C853.514 76.688 853.362 76.46 853.146 76.316C852.93 76.172 852.69 76.1 852.426 76.1C852.13 76.1 851.89 76.16 851.706 76.28C851.522 76.4 851.426 76.572 851.418 76.796C851.41 77.02 851.49 77.204 851.658 77.348C851.834 77.492 852.098 77.612 852.45 77.708L853.422 77.96C854.134 78.152 854.686 78.468 855.078 78.908C855.478 79.348 855.678 79.9 855.678 80.564C855.678 81.3 855.398 81.916 854.838 82.412C854.278 82.9 853.546 83.144 852.642 83.144ZM860.851 83.072C860.147 83.072 859.567 82.88 859.111 82.496C858.663 82.104 858.439 81.54 858.439 80.804V78.572H857.239V77H858.439V75.332H860.251V77H861.931V78.572H860.251V80.432C860.251 80.792 860.331 81.052 860.491 81.212C860.651 81.372 860.911 81.452 861.271 81.452C861.543 81.452 861.763 81.416 861.931 81.344V82.952C861.667 83.032 861.307 83.072 860.851 83.072ZM866.418 83.132C865.642 83.132 864.982 82.824 864.438 82.208C863.902 81.592 863.634 80.856 863.634 80C863.634 79.144 863.902 78.408 864.438 77.792C864.982 77.176 865.642 76.868 866.418 76.868C867.106 76.868 867.65 77.112 868.05 77.6V77H869.862V83H868.05V82.4C867.65 82.888 867.106 83.132 866.418 83.132ZM865.83 81.068C866.086 81.348 866.418 81.488 866.826 81.488C867.234 81.488 867.562 81.348 867.81 81.068C868.066 80.788 868.194 80.432 868.194 80C868.194 79.568 868.066 79.212 867.81 78.932C867.562 78.652 867.234 78.512 866.826 78.512C866.418 78.512 866.086 78.652 865.83 78.932C865.582 79.212 865.458 79.568 865.458 80C865.458 80.432 865.582 80.788 865.83 81.068ZM875.413 83.072C874.709 83.072 874.129 82.88 873.673 82.496C873.225 82.104 873.001 81.54 873.001 80.804V78.572H871.801V77H873.001V75.332H874.813V77H876.493V78.572H874.813V80.432C874.813 80.792 874.893 81.052 875.053 81.212C875.213 81.372 875.473 81.452 875.833 81.452C876.105 81.452 876.325 81.416 876.493 81.344V82.952C876.229 83.032 875.869 83.072 875.413 83.072ZM880.835 83.132C880.107 83.132 879.547 82.888 879.155 82.4C878.763 81.912 878.567 81.252 878.567 80.42V77H880.379V80.108C880.379 81.028 880.687 81.488 881.303 81.488C882.055 81.488 882.431 80.964 882.431 79.916V77H884.243V83H882.431V82.388C882.087 82.884 881.555 83.132 880.835 83.132ZM889.152 83.132C888.352 83.132 887.692 82.936 887.172 82.544C886.66 82.144 886.388 81.644 886.356 81.044H888.264C888.28 81.276 888.376 81.456 888.552 81.584C888.728 81.704 888.948 81.764 889.212 81.764C889.66 81.764 889.884 81.636 889.884 81.38C889.884 81.252 889.832 81.156 889.728 81.092C889.632 81.02 889.456 80.948 889.2 80.876L887.988 80.564C886.98 80.3 886.476 79.672 886.476 78.68C886.476 78.144 886.7 77.708 887.148 77.372C887.596 77.036 888.208 76.868 888.984 76.868C889.672 76.868 890.244 77.04 890.7 77.384C891.164 77.72 891.42 78.196 891.468 78.812H889.644C889.572 78.444 889.34 78.26 888.948 78.26C888.54 78.26 888.336 78.388 888.336 78.644C888.336 78.868 888.54 79.024 888.948 79.112L890.04 79.4C890.64 79.56 891.072 79.792 891.336 80.096C891.6 80.4 891.732 80.796 891.732 81.284C891.732 81.836 891.492 82.284 891.012 82.628C890.532 82.964 889.912 83.132 889.152 83.132Z" fill="#231F20"/>
<path d="M352.088 74.48H353.828L356.48 78.152L359.156 74.48H360.896V83H358.976V77.756L356.492 81.188L353.996 77.744V83H352.088V74.48ZM368.401 82.232C367.785 82.832 367.041 83.132 366.169 83.132C365.297 83.132 364.553 82.832 363.937 82.232C363.321 81.624 363.013 80.88 363.013 80C363.013 79.12 363.321 78.38 363.937 77.78C364.553 77.172 365.297 76.868 366.169 76.868C367.041 76.868 367.785 77.172 368.401 77.78C369.017 78.38 369.325 79.12 369.325 80C369.325 80.88 369.017 81.624 368.401 82.232ZM365.209 81.044C365.465 81.308 365.785 81.44 366.169 81.44C366.553 81.44 366.869 81.308 367.117 81.044C367.373 80.78 367.501 80.432 367.501 80C367.501 79.568 367.373 79.22 367.117 78.956C366.869 78.692 366.553 78.56 366.169 78.56C365.785 78.56 365.465 78.692 365.209 78.956C364.961 79.22 364.837 79.568 364.837 80C364.837 80.432 364.961 80.78 365.209 81.044ZM374.883 83.132C374.515 83.132 374.183 83.06 373.887 82.916C373.591 82.764 373.379 82.592 373.251 82.4V83H371.439V74H373.251V77.6C373.379 77.408 373.591 77.24 373.887 77.096C374.183 76.944 374.515 76.868 374.883 76.868C375.659 76.868 376.315 77.176 376.851 77.792C377.395 78.408 377.667 79.144 377.667 80C377.667 80.856 377.395 81.592 376.851 82.208C376.315 82.824 375.659 83.132 374.883 83.132ZM373.479 81.068C373.735 81.348 374.067 81.488 374.475 81.488C374.883 81.488 375.211 81.348 375.459 81.068C375.715 80.788 375.843 80.432 375.843 80C375.843 79.568 375.715 79.212 375.459 78.932C375.211 78.652 374.883 78.512 374.475 78.512C374.067 78.512 373.735 78.652 373.479 78.932C373.231 79.212 373.107 79.568 373.107 80C373.107 80.432 373.231 80.788 373.479 81.068ZM380.699 76.184C380.395 76.184 380.131 76.076 379.907 75.86C379.683 75.636 379.571 75.368 379.571 75.056C379.571 74.744 379.683 74.48 379.907 74.264C380.131 74.04 380.395 73.928 380.699 73.928C381.019 73.928 381.287 74.04 381.503 74.264C381.727 74.48 381.839 74.744 381.839 75.056C381.839 75.368 381.727 75.636 381.503 75.86C381.287 76.076 381.019 76.184 380.699 76.184ZM379.799 83V77H381.611V83H379.799ZM384.103 83V74H385.915V83H384.103ZM391.228 83.132C390.3 83.132 389.536 82.836 388.936 82.244C388.344 81.652 388.048 80.9 388.048 79.988C388.048 79.092 388.348 78.348 388.948 77.756C389.556 77.164 390.316 76.868 391.228 76.868C391.668 76.868 392.08 76.944 392.464 77.096C392.856 77.248 393.2 77.468 393.496 77.756C393.8 78.044 394.036 78.416 394.204 78.872C394.372 79.328 394.448 79.844 394.432 80.42H389.812C389.844 80.748 389.988 81.024 390.244 81.248C390.5 81.464 390.86 81.572 391.324 81.572C391.588 81.572 391.828 81.52 392.044 81.416C392.26 81.304 392.404 81.168 392.476 81.008H394.372C394.18 81.64 393.796 82.152 393.22 82.544C392.644 82.936 391.98 83.132 391.228 83.132ZM391.18 78.308C390.836 78.308 390.548 78.396 390.316 78.572C390.092 78.748 389.94 78.98 389.86 79.268H392.428C392.34 78.94 392.176 78.7 391.936 78.548C391.704 78.388 391.452 78.308 391.18 78.308Z" fill="white"/>
</g>
<defs>
<filter id="filter0_d_294_2275" x="-38.6499" y="13" width="339.103" height="134" filterUnits="userSpaceOnUse" color-interpolation-filters="sRGB">
<feFlood flood-opacity="0" result="BackgroundImageFix"/>
<feColorMatrix in="SourceAlpha" type="matrix" values="0 0 0 0 0 0 0 0 0 0 0 0 0 0 0 0 0 0 127 0" result="hardAlpha"/>
<feOffset dy="2"/>
<feGaussianBlur stdDeviation="24"/>
<feColorMatrix type="matrix" values="0 0 0 0 0 0 0 0 0 0 0 0 0 0 0 0 0 0 0.08 0"/>
<feBlend mode="normal" in2="BackgroundImageFix" result="effect1_dropShadow_294_2275"/>
<feBlend mode="normal" in="SourceGraphic" in2="effect1_dropShadow_294_2275" result="shape"/>
</filter>
<filter id="filter1_d_294_2275" x="439" y="13" width="226" height="134" filterUnits="userSpaceOnUse" color-interpolation-filters="sRGB">
<feFlood flood-opacity="0" result="BackgroundImageFix"/>
<feColorMatrix in="SourceAlpha" type="matrix" values="0 0 0 0 0 0 0 0 0 0 0 0 0 0 0 0 0 0 127 0" result="hardAlpha"/>
<feOffset dy="2"/>
<feGaussianBlur stdDeviation="24"/>
<feColorMatrix type="matrix" values="0 0 0 0 0 0 0 0 0 0 0 0 0 0 0 0 0 0 0.08 0"/>
<feBlend mode="normal" in2="BackgroundImageFix" result="effect1_dropShadow_294_2275"/>
<feBlend mode="normal" in="SourceGraphic" in2="effect1_dropShadow_294_2275" result="shape"/>
</filter>
<filter id="filter2_d_294_2275" x="594.821" y="13" width="259.627" height="134" filterUnits="userSpaceOnUse" color-interpolation-filters="sRGB">
<feFlood flood-opacity="0" result="BackgroundImageFix"/>
<feColorMatrix in="SourceAlpha" type="matrix" values="0 0 0 0 0 0 0 0 0 0 0 0 0 0 0 0 0 0 127 0" result="hardAlpha"/>
<feOffset dy="2"/>
<feGaussianBlur stdDeviation="24"/>
<feColorMatrix type="matrix" values="0 0 0 0 0 0 0 0 0 0 0 0 0 0 0 0 0 0 0.08 0"/>
<feBlend mode="normal" in2="BackgroundImageFix" result="effect1_dropShadow_294_2275"/>
<feBlend mode="normal" in="SourceGraphic" in2="effect1_dropShadow_294_2275" result="shape"/>
</filter>
<filter id="filter3_d_294_2275" x="770" y="13" width="199" height="134" filterUnits="userSpaceOnUse" color-interpolation-filters="sRGB">
<feFlood flood-opacity="0" result="BackgroundImageFix"/>
<feColorMatrix in="SourceAlpha" type="matrix" values="0 0 0 0 0 0 0 0 0 0 0 0 0 0 0 0 0 0 127 0" result="hardAlpha"/>
<feOffset dy="2"/>
<feGaussianBlur stdDeviation="24"/>
<feColorMatrix type="matrix" values="0 0 0 0 0 0 0 0 0 0 0 0 0 0 0 0 0 0 0.08 0"/>
<feBlend mode="normal" in2="BackgroundImageFix" result="effect1_dropShadow_294_2275"/>
<feBlend mode="normal" in="SourceGraphic" in2="effect1_dropShadow_294_2275" result="shape"/>
</filter>
<filter id="filter4_d_294_2275" x="228" y="13" width="287" height="134" filterUnits="userSpaceOnUse" color-interpolation-filters="sRGB">
<feFlood flood-opacity="0" result="BackgroundImageFix"/>
<feColorMatrix in="SourceAlpha" type="matrix" values="0 0 0 0 0 0 0 0 0 0 0 0 0 0 0 0 0 0 127 0" result="hardAlpha"/>
<feOffset dy="2"/>
<feGaussianBlur stdDeviation="24"/>
<feColorMatrix type="matrix" values="0 0 0 0 0 0 0 0 0 0 0 0 0 0 0 0 0 0 0.08 0"/>
<feBlend mode="normal" in2="BackgroundImageFix" result="effect1_dropShadow_294_2275"/>
<feBlend mode="normal" in="SourceGraphic" in2="effect1_dropShadow_294_2275" result="shape"/>
</filter>
<clipPath id="clip0_294_2275">
<rect width="911.637" height="38" fill="white" transform="translate(9.3501 59)"/>
</clipPath>
</defs>
</svg>
