<svg width="82" height="82" viewBox="0 0 82 82" fill="none" xmlns="http://www.w3.org/2000/svg">
<rect width="82" height="82" rx="41" fill="#ECFAF0"/>
<path d="M30.764 62L28.676 56.216L26.6 62H25.604L23.276 53.48H24.44L26.216 60.128L28.676 53.336L31.136 60.128L32.924 53.48H34.088L31.76 62H30.764ZM37.4713 62.12C36.6393 62.12 35.9393 61.816 35.3713 61.208C34.8113 60.6 34.5313 59.864 34.5313 59C34.5313 58.136 34.8113 57.4 35.3713 56.792C35.9393 56.184 36.6393 55.88 37.4713 55.88C37.9113 55.88 38.3193 55.98 38.6953 56.18C39.0793 56.372 39.3753 56.62 39.5833 56.924V56H40.6153V62H39.5833V61.076C39.3753 61.38 39.0793 61.632 38.6953 61.832C38.3193 62.024 37.9113 62.12 37.4713 62.12ZM37.6273 61.172C38.2193 61.172 38.7073 60.964 39.0913 60.548C39.4753 60.132 39.6673 59.616 39.6673 59C39.6673 58.384 39.4753 57.868 39.0913 57.452C38.7073 57.036 38.2193 56.828 37.6273 56.828C37.0273 56.828 36.5353 57.036 36.1513 57.452C35.7673 57.868 35.5753 58.384 35.5753 59C35.5753 59.616 35.7673 60.132 36.1513 60.548C36.5353 60.964 37.0273 61.172 37.6273 61.172ZM42.5579 62V53H43.5899V62H42.5579ZM45.5462 62V53H46.5782V62H45.5462ZM51.0905 62.12C50.2185 62.12 49.4945 61.824 48.9185 61.232C48.3505 60.64 48.0665 59.896 48.0665 59C48.0665 58.096 48.3425 57.352 48.8945 56.768C49.4545 56.176 50.1945 55.88 51.1145 55.88C52.0425 55.88 52.7705 56.208 53.2985 56.864C53.8265 57.52 54.0585 58.324 53.9945 59.276H49.1105C49.1265 59.82 49.3265 60.276 49.7105 60.644C50.0945 61.004 50.5585 61.184 51.1025 61.184C51.9185 61.184 52.4985 60.848 52.8425 60.176H53.8985C53.7465 60.736 53.4225 61.2 52.9265 61.568C52.4305 61.936 51.8185 62.12 51.0905 62.12ZM52.2665 57.224C51.9385 56.936 51.5425 56.792 51.0785 56.792C50.6145 56.792 50.1985 56.932 49.8305 57.212C49.4705 57.492 49.2465 57.908 49.1585 58.46H52.9025C52.8065 57.916 52.5945 57.504 52.2665 57.224ZM57.7297 62.06C57.1777 62.06 56.7337 61.904 56.3977 61.592C56.0617 61.28 55.8937 60.824 55.8937 60.224V56.948H54.6217V56H55.8937V54.332H56.9257V56H58.6537V56.948H56.9257V60.092C56.9257 60.468 57.0057 60.732 57.1657 60.884C57.3257 61.036 57.5777 61.112 57.9217 61.112C58.2257 61.112 58.4697 61.072 58.6537 60.992V61.916C58.3657 62.012 58.0577 62.06 57.7297 62.06Z" fill="#231F20"/>
<path d="M48.9375 27.7727H35.8125C35.1221 27.7727 34.4738 27.4138 34.0625 26.8191C34.4624 26.2397 35.0985 25.8636 35.8125 25.8636H50.6875C52.413 25.8312 52.4121 23.0315 50.6875 23H35.8125C33.1595 23 31 25.3549 31 28.25V38.75C31 41.6451 33.1595 44 35.8125 44H48.9375C50.6262 44 52 42.5014 52 40.6591V31.1136C52 29.2714 50.6262 27.7727 48.9375 27.7727ZM49.375 40.6591C49.375 40.9225 49.1781 41.1364 48.9375 41.1364H35.8125C34.6059 41.1364 33.625 40.0654 33.625 38.75V30.0598C34.2926 30.4321 35.0408 30.6364 35.8125 30.6364H48.9375C49.1781 30.6364 49.375 30.8502 49.375 31.1136V40.6591ZM47.625 35.8864C47.5952 37.7687 45.0289 37.7678 45 35.8864C45.0297 34.004 47.5961 34.005 47.625 35.8864Z" fill="#231F20"/>
</svg>
