<svg width="64" height="64" viewBox="0 0 64 64" fill="none" xmlns="http://www.w3.org/2000/svg">
<path d="M31.5993 0.5C48.777 0.5 62.701 14.424 62.701 31.5993C62.701 48.777 48.7746 62.701 31.5993 62.701C14.424 62.701 0.5 48.7746 0.5 31.5993C0.5 14.424 14.4216 0.5 31.5993 0.5Z" fill="white" stroke="#231F20"/>
<path d="M43.1885 43.652C45.2351 44.5606 47.1518 45.706 48.9122 47.0831C51.2292 44.6647 52.9471 41.8402 53.9969 38.7761H44.8958C44.4716 40.4344 43.9043 42.0614 43.1885 43.652Z" fill="#FFBA6B"/>
<path d="M33.2686 43.7925V52.6722C35.8507 50.5115 38.0299 47.8978 39.6815 44.9822C37.5898 44.3027 35.4424 43.9044 33.2686 43.7925Z" fill="#FFBA6B"/>
<path d="M35.5781 54C39.8119 53.3569 43.77 51.5711 47.0494 48.8195C45.5117 47.6532 43.8468 46.6692 42.0733 45.8882C40.3925 48.934 38.1894 51.683 35.5781 53.9973V54Z" fill="#FFBA6B"/>
<path d="M41.3858 15.8804C43.0374 15.214 44.5963 14.3783 46.0491 13.3917C42.9818 11.093 39.3816 9.58573 35.5879 9C37.8572 11.0071 39.8217 13.337 41.3858 15.8804Z" fill="#FFBA6B"/>
<path d="M33.2686 41.2961C35.8348 41.4158 38.3692 41.8974 40.8294 42.7305C41.4153 41.4367 41.8952 40.1168 42.2716 38.7761H33.2686V41.2961Z" fill="#FFBA6B"/>
<path d="M40.22 18.9497C37.94 19.6656 35.6097 20.0795 33.2715 20.1915V24.2265H42.2825C41.7788 22.4068 41.0922 20.6366 40.2226 18.9497H40.22Z" fill="#FFBA6B"/>
<path d="M48.0434 15.0657C46.3653 16.2684 44.544 17.2758 42.6113 18.0776C43.6002 20.0405 44.3663 22.1049 44.9019 24.2266H53.9818C52.7915 20.785 50.7714 17.6325 48.0434 15.0657Z" fill="#FFBA6B"/>
<path d="M33.2686 10.3171V17.6922C35.172 17.5933 37.0702 17.2678 38.9366 16.7238C37.4016 14.334 35.4796 12.1629 33.2686 10.3171Z" fill="#FFBA6B"/>
<path d="M15.0874 47.0804C16.8451 45.7059 18.7645 44.5579 20.8111 43.6493C20.0953 42.0588 19.528 40.4291 19.1038 38.7734H10C11.0498 41.8375 12.7677 44.662 15.0874 47.0804Z" fill="#FF8A00"/>
<path d="M21.389 18.0776C19.4564 17.2758 17.6378 16.2684 15.957 15.0657C13.229 17.6325 11.2089 20.7824 10.0186 24.2266H19.0985C19.634 22.1049 20.4002 20.0431 21.389 18.0776Z" fill="#FF8A00"/>
<path d="M30.7315 17.6922V10.3171C28.5205 12.1629 26.5985 14.334 25.0635 16.7238C26.9298 17.2678 28.828 17.5933 30.7315 17.6922Z" fill="#FFBA6B"/>
<path d="M30.731 52.6748V43.7925C28.5572 43.9044 26.4098 44.3027 24.3154 44.9822C25.9697 47.9004 28.1489 50.5141 30.731 52.6748Z" fill="#FFBA6B"/>
<path d="M23.1678 42.7305C25.628 41.8974 28.1624 41.4158 30.7287 41.2961V38.7761H21.7256C22.102 40.1168 22.5819 41.4367 23.1678 42.7305Z" fill="#FFBA6B"/>
<path d="M21.9243 45.8909C20.1507 46.6718 18.4859 47.6533 16.9482 48.8221C20.2276 51.5738 24.1857 53.3596 28.4195 54.0026C25.8082 51.6883 23.6025 48.9393 21.9243 45.8935V45.8909Z" fill="#FF8A00"/>
<path d="M30.7317 20.1915C28.3908 20.0821 26.0632 19.6656 23.7806 18.9497C22.911 20.6366 22.2218 22.4068 21.7207 24.2265H30.7317V20.1915Z" fill="#FFBA6B"/>
<path d="M28.4114 9C24.6177 9.58573 21.0175 11.093 17.9502 13.3917C19.4003 14.3783 20.9592 15.214 22.6134 15.8804C24.1802 13.3344 26.1447 11.0045 28.4114 9Z" fill="#FF8A00"/>
<path d="M25.4401 28.3447L23.3033 34.9023H20.8908L19.8118 31.3984L18.6772 34.9023H16.2647L14.1279 28.3447H16.445L17.6088 32.0726L18.8389 28.3447H20.9094L22.0732 32.1195L23.3033 28.3447H25.4401Z" fill="#231F20"/>
<path d="M37.4176 28.3447L35.2809 34.9023H32.8684L31.7894 31.3984L30.6547 34.9023H28.2422L26.1055 28.3447H28.4225L29.5863 32.0726L30.8164 28.3447H32.8869L34.0508 32.1195L35.2809 28.3447H37.4176Z" fill="#231F20"/>
<path d="M49.3979 28.3447L47.2611 34.9023H44.8486L43.7696 31.3984L42.6349 34.9023H40.2225L38.0857 28.3447H40.4027L41.5666 32.0726L42.7967 28.3447H44.8672L46.031 32.1195L47.2611 28.3447H49.3979Z" fill="#231F20"/>
</svg>
